<svg id="Group_45" data-name="Group 45" xmlns="http://www.w3.org/2000/svg" xmlns:xlink="http://www.w3.org/1999/xlink" width="192.672" height="192.672" viewBox="0 0 192.672 192.672">
  <defs>
    <style>
      .cls-1 {
        fill: #fff;
      }

      .cls-2 {
        clip-path: url(#clip-path);
      }
    </style>
    <clipPath id="clip-path">
      <rect id="Rectangle_13" data-name="Rectangle 13" class="cls-1" width="192.672" height="192.672"/>
    </clipPath>
  </defs>
  <g id="Group_1" data-name="Group 1" class="cls-2">
    <path id="Path_1" data-name="Path 1" class="cls-1" d="M183.806,251.148a9.952,9.952,0,0,0,1.023,2.681,18.618,18.618,0,0,0,2.623,2.236c.725-1.089,2.083-2.193,2.06-3.265-.077-3.58-2.067-6.494-5.283-6.964-1.656-.242-4.24,1.628-5.324,3.317-1.239,1.931-1.287,4.721-1.824,7.144-.053.237.11.521.147.788,2.393,17.283-9.681,27.984-25.489,22.411-3.7-1.3-7.137-3.434-11.34-5.5-.331,5.542-.586,10.854-.991,16.154-.205,2.681-.666,5.341-1.037,8.007-1.259,9.061-5.708,13.181-14.437,12.935-10.205-.288-20.4-.873-30.606-1.261-6.76-.257-13.53-.255-20.283-.631-5.209-.29-10.426-.773-15.587-1.559-5.863-.893-8.421-3.611-8.542-9.935-.133-6.987.482-14,.877-20.988.323-5.718-.452-6.386-5.386-4.182-5.256,2.347-10.282,5.341-16.311,5.1-6.766-.266-10.554-3.627-10.979-10.726a52.043,52.043,0,0,1,.741-9.214c.547-4.538.766-8.921-2.982-12.286-2.87-2.577-6.2-2.988-9.184-.97-1.481,1-2.3,3.527-2.769,5.532-.164.7,1.974,2.9,2.446,2.707,1.645-.662,3.021-2.071,5.313-3.815,1.529.339,1.655,1.992.208,3.984a7.02,7.02,0,0,1-7.9,2.729c-2.1-.546-3.581-5.753-2.767-8.559a10.319,10.319,0,0,1,10.614-7.439c5.82.459,11.142,5.144,11.693,10.9a50.871,50.871,0,0,1-.468,10.042c-.4,3.794-.541,7.305,3.288,9.438,3.959,2.205,7.425,1.955,10.784-1.617a124.285,124.285,0,0,0,10.129-12.08,26.988,26.988,0,0,0,5.129-17.35,47.24,47.24,0,0,1,1.872-13.464c1.64-6.188,6.235-9.509,12.326-9.172,13.89.769,27.771,1.744,41.65,2.723,8.141.574,16.282,1.209,24.4,2.019,6.109.609,10.075,4.761,10.484,11.225.408,6.441.223,12.923.521,19.375.109,2.364.349,5,1.415,6.982,3.2,5.944,7.537,10.874,13.518,13.858,6.287,3.136,13.4-1.217,14.049-8.557.262-2.954-.047-6.071.755-8.839,1.045-3.606,2.405-7.387,4.595-10.277,2.948-3.891,5.822-3.977,9.45-1.733,3.957,2.449,7.005,8.568,6.064,12.174-.875,3.353-3.646,4.959-6.86,3.975-2.665-.816-3.356-3.48-1.833-8.064m-47.155-5.8-.619-.024c0-3.235.094-6.474-.02-9.7-.207-5.874-1.593-7.827-7-8.773a163.948,163.948,0,0,0-16.29-1.967c-15.255-1.112-30.517-2.171-45.789-2.954-5.369-.276-7.85,2.3-8.554,8.033-.606,4.937-.955,9.914-1.274,14.884-.724,11.3-1.445,22.6-2,33.908-.294,6.029-.438,12.084-.254,18.114a5.9,5.9,0,0,0,5.389,5.9c4.919.687,9.866,1.315,14.819,1.544,15.8.729,31.6,1.276,47.4,1.865,7.136.266,10-2.418,10.506-10.036.306-4.571.2-9.175.553-13.74.965-12.356,2.078-24.7,3.133-37.048" transform="translate(0 -118.431)"/>
    <path id="Path_2" data-name="Path 2" class="cls-1" d="M223.63,123.3c5.5-.039,8.055,2.084,9.156,7.586s-1.883,9.156-7.09,8.208c-3.681-.669-4.765,2.608-5.863,4.568-1.558,2.781-3.561,3.755-6.149,4.456-4.331,1.172-7.831,2.011-12.471-1.462-4.395-3.289-8.289-6.27-10.679-11.348-1.285-2.73-.462-4.574,2.157-5.191,10.04-2.363,20.114-4.56,30.177-6.81a3.569,3.569,0,0,1,.762-.007m6.749,8.348-2.965-4.027a27.49,27.49,0,0,0-2.331,5.392c-.179.832,1.06,2,1.655,3.022l3.641-4.388" transform="translate(-108.686 -67.51)"/>
    <path id="Path_3" data-name="Path 3" class="cls-1" d="M173.422,174.253l51.286,14.053.292.893c-1.72.76-3.48,2.262-5.152,2.159-9.734-.605-19.816,1.1-29.055-3.2-5.347-2.486-10.222-6.147-15.183-9.489-.881-.594-1.141-2.218-2.189-4.418" transform="translate(-99.236 -95.424)"/>
    <path id="Path_4" data-name="Path 4" class="cls-1" d="M222.261,0c.057.436.262.891.132,1.173-2.79,6.056-1.153,11.276,2.785,15.963,3.919,4.664,4.247,9.9,2.491,15.514q-1.559,4.985-3.291,9.908c-2.436,6.872-2.462,6.861,2.511,11.062-2.894,2.111-7.024-.2-7.128-4.5a38.437,38.437,0,0,1,1.563-9.84,37.753,37.753,0,0,1,2.5-5.892c2.643-6.044,2.473-11.342-2.206-16.636-5-5.652-4.437-11.24.647-16.756" transform="translate(-124.827)"/>
    <path id="Path_5" data-name="Path 5" class="cls-1" d="M257.65,74.092c-4.692,1.03-6-1.372-6.368-4.1a14,14,0,0,1,.711-6.683c1.979-5.045,1.7-9.523-1.359-14a7.175,7.175,0,0,1-.447-7.359c1.357,3.176,3.192,6.306,4.012,9.71.872,3.622,1.6,7.686.9,11.222-.818,4.093-2.4,7.72,2.554,11.21" transform="translate(-142.702 -22.972)"/>
    <path id="Path_6" data-name="Path 6" class="cls-1" d="M201.082,96.257c-4.283-.944-5.389-3.9-4.621-7.21a103.579,103.579,0,0,1,5.78-17.413c-.225,3.177.117,6.551-.8,9.485-1.564,5-4.813,9.677-.359,15.137" transform="translate(-112.291 -39.228)"/>
    <path id="Path_7" data-name="Path 7" class="cls-1" d="M252.854,372.323c-5.834.046-8.505-2.986-8.558-9.713-.076-9.7,5.445-16.859,12.964-16.817,6.025.034,10.409,5.334,10.273,13.045-.15,8.53-3.5,13.774-14.68,13.485m1.89-2.987a10.422,10.422,0,0,0,10.4-7.722c1.082-4.5-1.275-10.346-5.069-12.577-2.844-1.672-7.464-.534-10.21,3.039-2.814,3.661-4.308,8.167-3.062,12.753,1.081,3.98,4.959,4.079,7.94,4.506" transform="translate(-139.791 -189.364)"/>
    <path id="Path_8" data-name="Path 8" class="cls-1" d="M169.638,255.628c-1.138,3.055-1.858,6.394-3.5,9.1-3.156,5.192-7.388,6.689-11.65,4.875-4.482-1.908-7.97-7.868-7.36-12.956a24.842,24.842,0,0,1,1.525-5.789c2.589-6.806,5.825-9.067,11.062-7.935,5.921,1.281,9.237,5.747,9.928,12.7m-2.955-.6c.061-5.476-3.6-9.571-8.683-9.726-4.509-.137-8.105,4.544-8.226,10.705-.125,6.422,3.006,10.834,7.787,10.971,4.762.136,9.049-5.481,9.121-11.95" transform="translate(-84.148 -132.879)"/>
    <path id="Path_9" data-name="Path 9" class="cls-1" d="M263.354,370.978c-2,1.611-3.025,3.023-4.193,3.167-.714.088-2.237-1.737-2.293-2.77a3.594,3.594,0,0,1,2.334-2.625c.94-.165,2.1,1.05,4.151,2.229" transform="translate(-146.986 -201.927)"/>
    <path id="Path_10" data-name="Path 10" class="cls-1" d="M176.871,277.668l-3.352,3.154c-.7-.941-2.114-2.094-1.934-2.773a5.276,5.276,0,0,1,2.585-2.77c.335-.183,1.461,1.258,2.7,2.389" transform="translate(-98.176 -150.74)"/>
  </g>
</svg>
