<?xml version="1.0" encoding="UTF-8"?><svg id="Layer_1" xmlns="http://www.w3.org/2000/svg" width="1920" height="1080" xmlns:xlink="http://www.w3.org/1999/xlink" viewBox="0 0 1920 1080"><defs><style>.cls-1{fill:none;}.cls-2{clip-path:url(#clippath);}.cls-3{fill:#f5e9b5;}.cls-4{fill:#311e00;}.cls-5{fill:#954500;}.cls-6{opacity:.2;}</style><clipPath id="clippath"><rect class="cls-1" x="189.22" y="103.4" width="186.84" height="186.84" transform="translate(-23.27 38.58) rotate(-7.5)"/></clipPath></defs><path class="cls-6" d="m1766.24-1.6c.24.61.49,1.21.74,1.82.33.29.65.58.97.88.09-.21.18-.41.27-.62-.5-.52-.92-1.17-1.19-1.97-.37-1.12-.83-2.25-1.36-3.38.24,1.07.43,2.16.57,3.26Z"/><path class="cls-6" d="m1791.71-43.87c-2.46,8.99-5,17.95-7.53,26.92-2.56,9.06-4.62,18.38-7.69,27.28-5.33,15.43-15.45,31.02-15.18,47.8.04,2.61-1.57,4.16-3.52,4.66-2.51,2.39-7.33,2.28-8.25-2.03-1.87-8.79-5.22-17.09-8.21-25.52l-50.19,190.2s-7.1,27.77,31.43,35.99l152.08,33.94s28.39,7.2,37.51-35.99l60.83-255.04-181.29-48.2Z"/><path class="cls-5" d="m1788.01-47l-72.01,269s-7,27,31,35l150,33s28,7,37-35l60-248s7-34-37-42l-130-35s-29-10-38.99,23Z"/><path class="cls-6" d="m1511.09,32.27l86.79,272.51s8.91,27.23,45.66,12.91l145.87-55.27s27.69-9.59,12.23-50.89l-85.45-247.67"/><path class="cls-5" d="m1513.75,24.44l85.6,264.99s8.78,26.47,45.04,12.56l143.88-53.74s27.31-9.33,12.06-49.48l-84.28-240.83s-12.58-32.35-53.88-15.18l-128.17,41.2s-29.78,7.35-20.25,40.49Z"/><path class="cls-6" d="m1378.51-13.64l-6.15,286.31s-.39,28.68,38.96,27.39l155.68-3.67s29.26.15,28.01-44l-.62-262.4"/><path class="cls-5" d="m1393.47-14.63l-6.07,278.4s-.39,27.89,38.42,26.64l153.55-3.56s28.86.15,27.63-42.79l-.61-255.15s-1.27-34.69-45.92-32.01l-134.59-3.13s-30.55-2.83-32.42,31.6Z"/><path class="cls-6" d="m1233.51-14.67c-1.01,6.66-2.38,13.25-3.9,19.8-.2,11.03-3.4,21.54-7.18,31.85-.93,4.94-1.78,9.9-2.61,14.91-3.76,22.66-14.8,43.52-17.43,66.41-.72,6.24-10.01,6.59-10,0,0-.37,0-.73,0-1.1l-26.78,146.71s-4.93,28.25,34.11,33.38l154.24,21.74s28.86,4.92,34.62-38.87l40.94-259.09-196-35.75Z"/><path class="cls-5" d="m1226.66-19.27l-50.7,273.82s-4.86,27.47,33.65,32.46l152.12,21.14s28.46,4.78,34.14-37.79l40.38-251.94s4.31-34.44-40.18-38.97l-132.34-24.7s-29.69-7.7-37.07,25.99Z"/><path class="cls-6" d="m969.13,8.74l7.13,286.29s.94,28.67,40.18,25.5l155.33-11.09s29.24-1.24,25.94-45.29l-12.79-262.08"/><path class="cls-5" d="m981.18,9.33l7.04,278.38s.92,27.88,39.64,24.8l153.21-10.78s28.84-1.21,25.59-44.04l-12.61-254.84s-2.9-34.59-47.37-29.82l-134.59,3.21s-30.64-1.39-30.89,33.09Z"/><path class="cls-6" d="m837.97-12.73l-74.89,276.12s-7.29,27.72,31.18,36.21l151.85,35s28.34,7.4,37.76-35.73l62.57-254.61"/><path class="cls-5" d="m852.8-14.46l-73.87,268.49s-7.19,26.95,30.76,35.21l149.77,34.04s27.95,7.19,37.24-34.74l61.72-247.58s7.24-33.95-36.71-42.26l-129.75-35.9s-28.93-10.2-39.15,22.73Z"/><path class="cls-6" d="m793.25-6.42l-74.89,276.12s-7.29,27.72,31.18,36.21l151.85,35s28.34,7.4,37.76-35.73l62.57-254.61s7.34-34.91-37.22-43.46"/><path class="cls-5" d="m800.8-3.46l-73.87,268.49s-7.19,26.95,30.76,35.21l149.77,34.04s27.95,7.19,37.24-34.74l61.72-247.58s7.24-33.95-36.71-42.26l-129.75-35.9s-28.93-10.2-39.15,22.73Z"/><path class="cls-6" d="m630.91,39.16l46.93,282.39s4.92,28.25,43.33,19.49l152.23-33.24s28.77-5.42,19.37-48.55L843.62,1.64"/><path class="cls-5" d="m636.73,36.97l46.29,274.6s4.85,27.47,42.74,18.95l150.15-32.32s28.38-5.27,19.11-47.21L846.54.49s-7.76-33.83-51.11-22.83L662.64-.15s-30.53,2.96-25.91,37.12Z"/><path class="cls-6" d="m577.33,22.34s-31.1.56-29.15,35.96l24.88,285.27s2.71,28.55,41.69,22.89l154.34-20.98s29.1-3.1,23.08-46.85l-29.02-260.75"/><path class="cls-5" d="m555.14,61.42l24.54,277.39s2.68,27.76,41.12,22.26l152.23-20.4s28.7-3.02,22.77-45.56l-28.62-253.54s-5.08-34.34-49.15-26.78l-134.12,11.67s-30.67.54-28.75,34.97Z"/><path class="cls-6" d="m431.09,26.47l-10.79,286.17s-.86,28.67,38.51,28.04l155.71-1.07s29.26.64,28.72-43.53l-2.25-263.08"/><path class="cls-5" d="m432.74,30.47l-10.64,278.27s-.85,27.88,37.98,27.26l153.58-1.04s28.85.62,28.33-42.33l3.58-255.13s-.7-34.71-45.38-32.76L465.68-.6s-30.49-3.33-32.93,31.07Z"/><path class="cls-6" d="m353.69,22.08l-67.03,278.19s-6.5,27.92,32.2,35.29l152.78,30.56s28.54,6.57,36.73-36.82l55.32-256.33s6.34-35.11-38.43-42.35"/><path class="cls-5" d="m361.34,24.25l-66.11,270.51s-6.41,27.15,31.76,34.31l150.69,29.71s28.15,6.39,36.23-35.8l54.57-249.25s6.26-34.14-37.91-41.18L399.82.41s-29.21-9.36-38.48,23.85Z"/><path class="cls-6" d="m428.22,298.89l-33.96-260.13-161.64-10.34c-.44,1.98-1.98,3.56-4.65,3.3-5.12-.5-10.56.03-15.53,1.39-4.28,1.17-8.05,3.67-12.22,5-.34.16-.71.3-1.13.39-9.8,2.17-10.85,12.33-11,20.89-.08,4.76-5.57,6-8.38,3.72,0,.09,0,.18.01.27l30.29,284.73s3.26,28.49,42.11,22.07l153.91-23.99s29.04-3.67,22.19-47.3Z"/><path class="cls-5" d="m185.8,63.44l29.88,276.86s3.21,27.71,41.54,21.46l151.8-23.33s28.64-3.57,21.88-45.99l-33.5-252.95s-5.74-34.24-49.66-25.83l-133.87,14.25s-30.65,1.13-28.07,35.52Z"/><path class="cls-6" d="m-57.18,133.38L22.24,408.2s8.17,27.46,45.3,14.17l147.31-51.21s27.94-8.82,13.6-50.53l-78.75-249.95s-11.86-33.61-54.18-17.12L-35.54,92.33s-30.39,6.72-21.65,41.05Z"/><path class="cls-5" d="m-47.86,136.37L30.48,403.59s8.06,26.7,44.68,13.78l145.29-49.79s27.56-8.58,13.41-49.13l-77.68-243.04s-11.7-32.68-53.44-16.64L-26.51,96.45s-29.97,6.53-21.35,39.92Z"/><path class="cls-6" d="m-40.89,24.56s-30.82-4.26-34.22,31.03l-18.36,285.77s-1.62,28.64,37.75,29.08l155.69,3.17s29.23,1.44,29.86-42.73l10.57-262.18s.23-35.7-45.1-34.93"/><path class="cls-5" d="m-67.52,56.83l-18.11,277.88s-1.59,27.85,37.24,28.27l153.56,3.08s28.83,1.4,29.46-41.55l10.43-254.94s.23-34.71-44.49-33.97L-33.77,26.66s-30.39-4.15-33.75,30.17Z"/><rect class="cls-5" x="0" y="-2" width="1920" height="128"/><path class="cls-6" d="m153.59,100.05l29.88,276.86s3.21,27.71,41.54,21.46l151.8-23.33s28.64-3.57,21.88-45.99l-33.5-252.95s-5.74-34.24-49.66-25.83l-133.87,14.25s-30.65,1.13-28.07,35.52Z"/><path class="cls-3" d="m160.8,95.44l29.88,276.86s3.21,27.71,41.54,21.46l151.8-23.33s28.64-3.57,21.88-45.99l-33.5-252.95s-5.74-34.24-49.66-25.83l-133.87,14.25s-30.65,1.13-28.07,35.52Z"/><g class="cls-2"><g id="Group_1"><path id="Path_1" class="cls-4" d="m371.35,220.73c.32.88.77,1.7,1.32,2.45.88.69,1.82,1.3,2.81,1.82.56-1.14,1.73-2.37,1.57-3.4-.53-3.43-2.81-5.99-5.96-6.03-1.62-.02-3.87,2.1-4.7,3.86-.95,2.01-.64,4.7-.85,7.1-.02.23.17.49.24.74,4.49,16.31-5.77,28.13-21.67,24.77-3.72-.79-7.3-2.4-11.6-3.85.38,5.37.81,10.51,1.09,15.66.14,2.6.04,5.22.02,7.83-.06,8.87-3.82,13.4-12.24,14.26-9.85,1.02-19.73,1.74-29.59,2.66-6.53.61-13.04,1.47-19.58,1.96-5.04.38-10.12.58-15.18.47-5.75-.12-8.55-2.4-9.47-8.47-1.01-6.7-1.31-13.52-1.81-20.29-.41-5.54-1.24-6.08-5.71-3.34-4.76,2.92-9.21,6.44-15.04,6.97-6.54.6-10.61-2.15-11.91-8.92-.42-2.96-.57-5.96-.45-8.95-.05-4.43-.39-8.67-4.42-11.43-3.09-2.12-6.34-2.09-8.95.23-1.3,1.15-1.76,3.68-1.96,5.67-.07.69,2.26,2.54,2.69,2.29,1.5-.85,2.64-2.37,4.62-4.34,1.51.13,1.84,1.71.7,3.8-1.36,2.67-4.3,4.14-7.25,3.62-2.09-.26-4.17-5.08-3.74-7.88.7-4.66,4.56-8.2,9.26-8.5,5.65-.3,11.36,3.54,12.62,9,.59,3.2.87,6.46.82,9.71.1,3.7.4,7.09,4.36,8.66,4.09,1.62,7.39.94,10.16-2.92,3.01-4.12,5.75-8.43,8.21-12.9,2.88-5.29,3.84-11.41,2.74-17.33-.6-4.38-.57-8.82.1-13.18.79-6.16,4.79-9.93,10.69-10.38,13.45-1.02,26.92-1.84,40.39-2.65,7.9-.48,15.81-.9,23.72-1.15,5.95-.19,10.29,3.3,11.5,9.47,1.21,6.14,1.85,12.4,2.95,18.56.27,2.31,1.04,4.54,2.24,6.53,3.83,5.31,8.62,9.5,14.75,11.61,6.44,2.22,12.73-2.87,12.42-10.01-.12-2.87-.81-5.83-.39-8.59.41-3.64,1.46-7.19,3.12-10.46,2.34-4.11,5.09-4.56,8.87-2.86,4.11,1.85,7.82,7.35,7.37,10.94-.42,3.33-2.88,5.23-6.09,4.69-2.67-.45-3.67-2.92-2.78-7.52m-46.07.39l-.6.06c-.41-3.11-.73-6.24-1.25-9.33-.94-5.63-2.52-7.32-7.84-7.55-5.3-.21-10.62-.15-15.91.17-14.81.86-29.61,1.78-44.39,2.95-5.2.41-7.26,3.2-7.21,8.81.04,4.82.34,9.65.66,14.47.74,10.95,1.47,21.91,2.37,32.85.48,5.83,1.11,11.67,2.05,17.45.38,2.95,2.95,5.12,5.93,4.99,4.82.04,9.65.02,14.44-.39,15.28-1.3,30.54-2.77,45.81-4.21,6.89-.65,9.3-3.59,8.83-10.98-.28-4.43-.97-8.85-1.21-13.28-.64-12-1.13-24.01-1.68-36.02"/><path id="Path_2" class="cls-4" d="m295.4,155.48c5.29-.73,8.01.98,9.76,6.13s-.65,9.04-5.78,8.79c-3.62-.18-4.25,3.11-5.06,5.13-1.15,2.87-2.95,4.06-5.35,5.06-4.02,1.68-7.27,2.92-12.18.17-4.64-2.61-8.76-4.98-11.7-9.56-1.58-2.46-1.02-4.34,1.42-5.26,9.35-3.54,18.76-6.93,28.15-10.36.24-.06.48-.1.73-.1m7.55,7.18l-3.36-3.49c-.71,1.77-1.24,3.6-1.56,5.48-.07.82,1.27,1.79,1.97,2.7l2.95-4.68"/><path id="Path_3" class="cls-4" d="m259.13,182.79l51.09,7.02.39.82c-1.56.95-3.06,2.62-4.68,2.73-9.44.65-18.91,3.56-28.34.6-5.46-1.71-10.61-4.62-15.8-7.2-.92-.46-1.38-1.99-2.66-3.97"/><path id="Path_4" class="cls-4" d="m271.5,104.06c.11.41.36.82.28,1.11-1.92,6.17.32,10.99,4.7,15,4.36,3.99,5.34,8.98,4.36,14.6-.58,3.33-1.21,6.64-1.91,9.94-1.47,6.92-1.5,6.91,3.81,10.32-2.51,2.4-6.78.69-7.42-3.42-.33-3.22-.25-6.46.26-9.66.38-2.04.93-4.04,1.65-5.98,1.78-6.15.94-11.22-4.23-15.71-5.52-4.8-5.69-10.25-1.5-16.19"/><path id="Path_5" class="cls-4" d="m294.81,150.99c-4.38,1.59-5.94-.56-6.64-3.13-.58-2.13-.64-4.36-.16-6.51,1.26-5.1.43-9.37-3.08-13.29-1.71-1.91-2.24-4.61-1.36-7.02,1.71,2.88,3.87,5.66,5.09,8.83,1.3,3.37,2.52,7.19,2.28,10.68-.27,4.04-1.33,7.73,3.87,10.45"/><path id="Path_6" class="cls-4" d="m270.41,159.98c-4.24-.36-5.67-3.07-5.36-6.35.6-5.91,1.72-11.76,3.35-17.47.19,3.08.94,6.28.43,9.22-.87,5.01-3.4,9.91,1.57,14.6"/><path id="Path_7" class="cls-4" d="m309.69,277.98c-5.6.78-8.56-1.8-9.46-8.26-1.3-9.31,3.1-16.9,10.34-17.81,5.8-.73,10.68,3.81,11.53,11.24.93,8.22-1.63,13.69-12.41,14.82m1.44-3.11c4.67-.46,8.41-4.08,9.02-8.74.47-4.46-2.53-9.79-6.47-11.45-2.95-1.25-7.24.43-9.43,4.21-2.24,3.88-3.11,8.4-1.33,12.65,1.54,3.69,5.28,3.29,8.2,3.33"/><path id="Path_8" class="cls-4" d="m275.56,223.59c-.7,3.08-.98,6.38-2.22,9.2-2.38,5.39-6.26,7.37-10.59,6.16-4.55-1.27-8.66-6.56-8.72-11.52.01-1.94.26-3.88.73-5.76,1.63-6.87,4.45-9.46,9.63-9.03,5.85.48,9.61,4.36,11.15,10.96m-2.92-.21c-.63-5.27-4.67-8.75-9.58-8.25-4.35.44-7.22,5.4-6.55,11.33.69,6.19,4.26,10.04,8.88,9.56,4.6-.47,8.01-6.41,7.26-12.64"/><path id="Path_9" class="cls-4" d="m311.11,264.19c-1.72,1.8-2.53,3.29-3.63,3.58-.68.17-2.37-1.39-2.55-2.37.1-1.21.83-2.28,1.91-2.82.88-.28,2.15.74,4.27,1.62"/><path id="Path_10" class="cls-4" d="m269.55,228.47l-2.82,3.46c-.79-.82-2.3-1.75-2.21-2.42.32-1.23,1.08-2.29,2.13-2.99.3-.22,1.56,1.02,2.9,1.96"/></g></g></svg>