<?xml version="1.0" encoding="UTF-8"?><svg id="Layer_1" xmlns="http://www.w3.org/2000/svg" width="253.5" height="354.95" xmlns:xlink="http://www.w3.org/1999/xlink" viewBox="0 0 253.5 354.95"><defs><style>.cls-1{fill:none;}.cls-2{clip-path:url(#clippath);}.cls-3{fill:#f5e9b5;}.cls-4{fill:#311e00;}.cls-5{opacity:.2;}</style><clipPath id="clippath"><rect class="cls-1" x="35.79" y="59.06" width="186.84" height="186.84" transform="translate(-18.8 18.17) rotate(-7.5)"/></clipPath></defs><path class="cls-5" d="m.15,55.7l29.88,276.86s3.21,27.71,41.54,21.46l151.8-23.33s28.64-3.57,21.88-45.99L211.76,31.76s-5.74-34.24-49.66-25.83L28.23,20.19S-2.43,21.32.15,55.7Z"/><path class="cls-3" d="m7.36,51.1l29.88,276.86s3.21,27.71,41.54,21.46l151.8-23.33s28.64-3.57,21.88-45.99L218.97,27.16s-5.74-34.24-49.66-25.83L35.44,15.58s-30.65,1.13-28.07,35.52Z"/><g class="cls-2"><g id="Group_1"><path id="Path_1" class="cls-4" d="m217.91,176.38c.32.88.77,1.7,1.32,2.45.88.69,1.82,1.3,2.81,1.82.56-1.14,1.73-2.37,1.57-3.4-.53-3.43-2.81-5.99-5.96-6.03-1.62-.02-3.87,2.1-4.7,3.86-.95,2.01-.64,4.7-.85,7.1-.02.23.17.49.24.74,4.49,16.31-5.77,28.13-21.67,24.77-3.72-.79-7.3-2.4-11.6-3.85.38,5.37.81,10.51,1.09,15.66.14,2.6.04,5.22.02,7.83-.06,8.87-3.82,13.4-12.24,14.26-9.85,1.02-19.73,1.74-29.59,2.66-6.53.61-13.04,1.47-19.58,1.96-5.04.38-10.12.58-15.18.47-5.75-.12-8.55-2.4-9.47-8.47-1.01-6.7-1.31-13.52-1.81-20.29-.41-5.54-1.24-6.08-5.71-3.34-4.76,2.92-9.21,6.44-15.04,6.97-6.54.6-10.61-2.15-11.91-8.92-.42-2.96-.57-5.96-.45-8.95-.05-4.43-.39-8.67-4.42-11.43-3.09-2.12-6.34-2.09-8.95.23-1.3,1.15-1.76,3.68-1.96,5.67-.07.69,2.26,2.54,2.69,2.29,1.5-.85,2.64-2.37,4.62-4.34,1.51.13,1.84,1.71.7,3.8-1.36,2.67-4.3,4.14-7.25,3.62-2.09-.26-4.17-5.08-3.74-7.88.7-4.66,4.56-8.2,9.26-8.5,5.65-.3,11.36,3.54,12.62,9,.59,3.2.87,6.46.82,9.71.1,3.7.4,7.09,4.36,8.66,4.09,1.62,7.39.94,10.16-2.92,3.01-4.12,5.75-8.43,8.21-12.9,2.88-5.29,3.84-11.41,2.74-17.33-.6-4.38-.57-8.82.1-13.18.79-6.16,4.79-9.93,10.69-10.38,13.45-1.02,26.92-1.84,40.39-2.65,7.9-.48,15.81-.9,23.72-1.15,5.95-.19,10.29,3.3,11.5,9.47,1.21,6.14,1.85,12.4,2.95,18.56.27,2.31,1.04,4.54,2.24,6.53,3.83,5.31,8.62,9.5,14.75,11.61,6.44,2.22,12.73-2.87,12.42-10.01-.12-2.87-.81-5.83-.39-8.59.41-3.64,1.46-7.19,3.12-10.46,2.34-4.11,5.09-4.56,8.87-2.86,4.11,1.85,7.82,7.35,7.37,10.94-.42,3.33-2.88,5.23-6.09,4.69-2.67-.45-3.67-2.92-2.78-7.52m-46.07.39l-.6.06c-.41-3.11-.73-6.24-1.25-9.33-.94-5.63-2.52-7.32-7.84-7.55-5.3-.21-10.62-.15-15.91.17-14.81.86-29.61,1.78-44.39,2.95-5.2.41-7.26,3.2-7.21,8.81.04,4.82.34,9.65.66,14.47.74,10.95,1.47,21.91,2.37,32.85.48,5.83,1.11,11.67,2.05,17.45.38,2.95,2.95,5.12,5.93,4.99,4.82.04,9.65.02,14.44-.39,15.28-1.3,30.54-2.77,45.81-4.21,6.89-.65,9.3-3.59,8.83-10.98-.28-4.43-.97-8.85-1.21-13.28-.64-12-1.13-24.01-1.68-36.02"/><path id="Path_2" class="cls-4" d="m141.97,111.14c5.29-.73,8.01.98,9.76,6.13s-.65,9.04-5.78,8.79c-3.62-.18-4.25,3.11-5.06,5.13-1.15,2.87-2.95,4.06-5.35,5.06-4.02,1.68-7.27,2.92-12.18.17-4.64-2.61-8.76-4.98-11.7-9.56-1.58-2.46-1.02-4.34,1.42-5.26,9.35-3.54,18.76-6.93,28.15-10.36.24-.06.48-.1.73-.1m7.55,7.18l-3.36-3.49c-.71,1.77-1.24,3.6-1.56,5.48-.07.82,1.27,1.79,1.97,2.7l2.95-4.68"/><path id="Path_3" class="cls-4" d="m105.7,138.45l51.09,7.02.39.82c-1.56.95-3.06,2.62-4.68,2.73-9.44.65-18.91,3.56-28.34.6-5.46-1.71-10.61-4.62-15.8-7.2-.92-.46-1.38-1.99-2.66-3.97"/><path id="Path_4" class="cls-4" d="m118.07,59.72c.11.41.36.82.28,1.11-1.92,6.17.32,10.99,4.7,15,4.36,3.99,5.34,8.98,4.36,14.6-.58,3.33-1.21,6.64-1.91,9.94-1.47,6.92-1.5,6.91,3.81,10.32-2.51,2.4-6.78.69-7.42-3.42-.33-3.22-.25-6.46.26-9.66.38-2.04.93-4.04,1.65-5.98,1.78-6.15.94-11.22-4.23-15.71-5.52-4.8-5.69-10.25-1.5-16.19"/><path id="Path_5" class="cls-4" d="m141.38,106.65c-4.38,1.59-5.94-.56-6.64-3.13-.58-2.13-.64-4.36-.16-6.51,1.26-5.1.43-9.37-3.08-13.29-1.71-1.91-2.24-4.61-1.36-7.02,1.71,2.88,3.87,5.66,5.09,8.83,1.3,3.37,2.52,7.19,2.28,10.68-.27,4.04-1.33,7.73,3.87,10.45"/><path id="Path_6" class="cls-4" d="m116.98,115.64c-4.24-.36-5.67-3.07-5.36-6.35.6-5.91,1.72-11.76,3.35-17.47.19,3.08.94,6.28.43,9.22-.87,5.01-3.4,9.91,1.57,14.6"/><path id="Path_7" class="cls-4" d="m156.26,233.64c-5.6.78-8.56-1.8-9.46-8.26-1.3-9.31,3.1-16.9,10.34-17.81,5.8-.73,10.68,3.81,11.53,11.24.93,8.22-1.63,13.69-12.41,14.82m1.44-3.11c4.67-.46,8.41-4.08,9.02-8.74.47-4.46-2.53-9.79-6.47-11.45-2.95-1.25-7.24.43-9.43,4.21-2.24,3.88-3.11,8.4-1.33,12.65,1.54,3.69,5.28,3.29,8.2,3.33"/><path id="Path_8" class="cls-4" d="m122.12,179.25c-.7,3.08-.98,6.38-2.22,9.2-2.38,5.39-6.26,7.37-10.59,6.16-4.55-1.27-8.66-6.56-8.72-11.52.01-1.94.26-3.88.73-5.76,1.63-6.87,4.45-9.46,9.63-9.03,5.85.48,9.61,4.36,11.15,10.96m-2.92-.21c-.63-5.27-4.67-8.75-9.58-8.25-4.35.44-7.22,5.4-6.55,11.33.69,6.19,4.26,10.04,8.88,9.56,4.6-.47,8.01-6.41,7.26-12.64"/><path id="Path_9" class="cls-4" d="m157.67,219.85c-1.72,1.8-2.53,3.29-3.63,3.58-.68.17-2.37-1.39-2.55-2.37.1-1.21.83-2.28,1.91-2.82.88-.28,2.15.74,4.27,1.62"/><path id="Path_10" class="cls-4" d="m116.12,184.13l-2.82,3.46c-.79-.82-2.3-1.75-2.21-2.42.32-1.23,1.08-2.29,2.13-2.99.3-.22,1.56,1.02,2.9,1.96"/></g></g></svg>