<?xml version="1.0" encoding="UTF-8"?><svg id="Layer_1" xmlns="http://www.w3.org/2000/svg" width="1920" height="3216" viewBox="0 0 1920 3216"><defs><style>.cls-1{fill:none;}.cls-1,.cls-2,.cls-3,.cls-4{opacity:.75;}.cls-5,.cls-6{opacity:.8;}.cls-5,.cls-2{fill:#311e00;}.cls-6,.cls-3{fill:#f2aebb;}.cls-4{fill:#f5e9b5;}</style></defs><path class="cls-3" d="m3.41,3207.36l.09,9.14,1.82-43.23c-1.15,11.33-1.85,22.71-1.91,34.09Z"/><path class="cls-2" d="m4,3216.52l-1-.02-.08-9.15c.05-10.8.68-21.97,1.91-34.13l1,.07-1.82,43.23h0Z"/><path class="cls-6" d="m3.5,3216.5l-.09-9.14c0,3.05,0,6.1.09,9.14Z"/><path class="cls-5" d="m3,3216.51c-.08-2.73-.1-5.64-.08-9.16h1l.08,9.14-1,.02Z"/><polygon class="cls-2" points="91.73 2 -.5 2 -.53 -3 90.56 -4.02 91.73 2"/><path class="cls-4" d="m349.84,366.8l-9.51-1.32c3.16.49,6.34.93,9.51,1.32Z"/><path class="cls-2" d="m349.54,369.28c-3.24-.4-6.47-.85-9.59-1.33l.73-4.95,9.51,1.32-.65,4.96h0Z"/><polygon class="cls-2" points="418.14 370.36 417.88 365.37 418.12 365.35 418.51 370.34 418.14 370.36"/><path class="cls-4" d="m366.22,369.07h19.89c-12.08-.06-24.2-.79-36.26-2.27l16.37,2.28h0Z"/><path class="cls-2" d="m366.04,371.57l-16.54-2.3.65-4.96c11.68,1.43,23.78,2.19,35.97,2.25v5h-20.08Z"/><path class="cls-4" d="m1347.5,1723.5c-.88-14-1.01-29.02-2.67-43.22-1.55.94-3.1,1.88-4.66,2.81-29.25,17.55-58.88,34.47-88.65,51.15-34.41,19.28-68.97,38.31-103.55,57.28-28.68,15.73-57.45,31.33-86.45,46.46-27.12,14.15-54.47,27.85-82.07,41.03-32.6,15.56-65.51,30.53-98.71,44.76-27.9,11.96-56.04,23.4-84.57,33.77-19.84,7.21-39.88,13.9-60.19,19.7-15.83,4.52-31.83,8.43-47.93,11.9-34.18,7.36-68.83,12.83-103.73,15.22-22.77,1.56-45.64,1.75-68.42.17-29.79-2.07-60.06-4.97-89.17-11.74-35.39-8.23-68.05-24.2-95.61-47.98-23.03-19.87-41.89-44.32-55.92-71.27-8.41-16.17-15.17-33.26-19.74-50.92-9.53-36.84-7.3-73.94-1.35-111.15,5.14-32.2,10.39-64.72,19.83-95.99,11.01-36.45,28.19-70.84,51.44-101.04,21.08-27.38,46.97-50.16,75.27-69.82,29.5-20.49,60.28-39.53,92.68-55.09,28.15-13.52,57.45-24.51,87.39-33.34,30.68-9.04,61.83-16.5,93.42-21.57,27.8-4.47,55.91-7.3,84.07-8.04,24.52-.65,49.08.61,73.44,3.47,35.05,4.11,69.51,11.85,103.93,19.46,33.24,7.34,66.17,15.74,98.25,27.21,28.13,10.06,55.95,21.72,82.59,35.27,31.28,15.91,60.54,35.06,88.26,56.55,25.34,19.65,48.87,41.44,69.36,66.15,20.29,24.47,39.52,51.02,53.55,79.61,9.93,20.24,13.95,41,16.91,63.21.12.92.22,1.85.33,2.78,20.95-12.64,41.7-25.64,62.05-39.25,7.2-4.81,14.34-9.7,21.43-14.67-1.46-5.23-3.05-10.52-4.8-15.86-23.64-72.29-62.57-117.29-95-154-84.1-95.21-177.97-138.03-223-158-21.23-9.42-105.93-45.73-224-58-96.48-10.03-170.22.67-225,9-43.99,6.69-120.86,18.86-214,57-67.89,27.8-120.8,49.47-176,101-15.7,14.65-73.36,70.72-110,165-16.07,41.36-47.79,126.31-26,233,8.39,41.07,29.05,106.6,82,168,53.53,62.07,113.24,88.8,139,100,62.54,27.18,115.41,31.24,156,34,85.33,5.8,149.51-8.38,209-22,97.53-22.33,166.78-53.27,249-90,80.39-35.91,140.15-69.03,176-89,44.57-24.83,72.91-42.4,170-103,11.75-7.33,23.27-14.3,34-21,1.4-.87,2.77-1.73,4.15-2.59,1.26-17.91-.88-35.95-2.15-56.41h0Z"/><path class="cls-2" d="m546.65,2111.34c-12.6,0-25.69-.42-39.32-1.35-36.88-2.51-92.61-6.3-156.83-34.2-23.22-10.09-84.9-36.89-139.9-100.66-51.99-60.29-73.59-125.25-82.56-169.13-22.39-109.59,11.6-197.06,26.12-234.41,33.25-85.55,83.58-140.68,110.62-165.92,55.54-51.84,109.03-73.75,176.76-101.49,95.32-39.04,172.9-50.82,214.57-57.16,50.52-7.68,126.87-19.28,225.63-9.01,106.31,11.05,186.45,41.21,224.76,58.2,41.2,18.28,137.68,61.07,223.86,158.63,30.06,34.02,71.22,80.62,95.5,154.88,1.71,5.24,3.34,10.61,4.83,15.96l.48,1.7-1.45,1.01c-7.06,4.95-14.29,9.9-21.47,14.7-18.31,12.24-38.2,24.84-60.77,38.48.99,9.05,1.4,18.42,1.79,27.5.21,4.72.42,9.6.71,14.25.3,4.79.65,9.47.99,14,1.1,14.84,2.15,28.85,1.17,42.74l-.09,1.27-5.24,3.27c-5.25,3.28-10.59,6.56-16.24,10.03-5.78,3.55-11.76,7.22-17.76,10.97-98.07,61.21-125.56,78.24-170.11,103.06-32.88,18.32-94.07,52.41-176.2,89.1-81.4,36.36-151.69,67.77-249.46,90.15-48.38,11.08-102.21,23.41-170.41,23.41l.02.02Zm257.16-872.37c-61.38,0-110.8,7.51-146.93,13-41.47,6.3-118.66,18.03-213.43,56.84-67.25,27.54-120.37,49.29-175.24,100.51-26.73,24.96-76.49,79.46-109.38,164.08-14.35,36.94-47.97,123.45-25.88,231.59,8.84,43.3,30.15,107.4,81.44,166.87,54.25,62.9,115.17,89.38,138.1,99.34,63.42,27.56,116.45,31.17,155.17,33.8,86.7,5.89,151.29-8.89,208.27-21.94,97.29-22.28,167.38-53.59,248.54-89.85,81.92-36.6,142.99-70.62,175.8-88.9,44.45-24.76,71.91-41.78,169.89-102.94,6.02-3.76,12-7.43,17.79-10.99,5.64-3.47,10.97-6.74,16.21-10.01l3.07-1.92c.81-13.12-.19-26.56-1.25-40.75-.34-4.54-.69-9.24-.99-14.06h0c-.29-4.7-.51-9.6-.72-14.35-.36-8.22-.73-16.68-1.53-24.86l-1.31.79c-25.44,15.26-53.63,31.53-88.71,51.19-36.2,20.29-72.67,40.34-103.57,57.29-23.72,13.01-54.99,30.05-86.5,46.49-27.75,14.48-55.39,28.29-82.15,41.07-33.29,15.89-66.53,30.97-98.8,44.81-31.22,13.39-58.93,24.45-84.7,33.82-21.76,7.91-41.5,14.37-60.35,19.76-15.18,4.33-30.91,8.24-48.09,11.94-37.34,8.04-71.39,13.03-104.09,15.27-23.8,1.63-46.94,1.69-68.76.17-28.73-1.99-59.46-4.8-89.57-11.8-36.73-8.54-69.26-24.86-96.68-48.52-22.93-19.78-41.94-44.01-56.5-72.01-8.76-16.83-15.47-34.14-19.95-51.45-10.59-40.91-6.31-81.43-1.4-112.17,5.06-31.72,10.3-64.53,19.91-96.32,11.38-37.66,28.82-71.92,51.86-101.85,19.68-25.57,44.49-48.58,75.83-70.35,33.32-23.14,63.75-41.23,93.02-55.29,27.21-13.07,56.74-24.34,87.77-33.49,33.01-9.73,63.67-16.81,93.73-21.64,28.87-4.64,57.27-7.35,84.4-8.07,23.9-.63,48.73.54,73.79,3.48,34.03,3.99,67.98,11.5,100.81,18.75l3.37.75c40.2,8.88,70.6,17.3,98.55,27.29,29.68,10.61,57.57,22.52,82.88,35.39,30.11,15.31,59.11,33.9,88.66,56.81,27.49,21.31,50.3,43.08,69.75,66.53,24.34,29.36,41.46,54.81,53.87,80.11,10.22,20.84,14.25,42.54,17.01,62.95,21.71-13.15,40.92-25.34,58.64-37.19,6.66-4.46,13.36-9.03,19.93-13.62-1.34-4.72-2.78-9.43-4.29-14.05-23.96-73.27-64.73-119.42-94.5-153.12-85.46-96.74-181.24-139.23-222.14-157.37-38.04-16.87-117.62-46.82-223.24-57.8-27.59-2.87-53.43-4.02-77.43-4.02h.02Zm-33.04,89.94c-4.19,0-8.36.05-12.5.16-26.91.71-55.08,3.4-83.73,8.01-29.85,4.79-60.3,11.83-93.11,21.5-30.77,9.07-60.05,20.24-87.02,33.2-29.04,13.95-59.24,31.9-92.34,54.89-30.91,21.47-55.35,44.14-74.72,69.29-22.66,29.44-39.83,63.17-51.03,100.24-9.51,31.47-14.72,64.1-19.75,95.66-4.83,30.26-9.05,70.12,1.31,110.13,4.38,16.94,10.96,33.89,19.54,50.39,14.27,27.43,32.89,51.16,55.33,70.53,26.8,23.12,58.61,39.08,94.55,47.44,29.76,6.92,60.26,9.7,88.78,11.68,21.6,1.5,44.5,1.44,68.08-.17,32.46-2.22,66.28-7.18,103.38-15.17,17.07-3.67,32.69-7.55,47.77-11.86,18.74-5.35,38.38-11.78,60.02-19.65,25.68-9.33,53.3-20.36,84.44-33.72,32.21-13.81,65.39-28.86,98.62-44.72,26.7-12.75,54.29-26.54,81.99-40.99,31.46-16.41,62.71-33.44,86.41-46.44,30.89-16.94,67.34-36.99,103.53-57.26,35.04-19.63,63.19-35.87,88.58-51.11l3.28-1.98c-.04-.38-.09-.76-.14-1.14-3.13-23.45-7.16-43.04-16.68-62.44-12.23-24.93-29.15-50.07-53.23-79.12-19.21-23.17-41.77-44.68-68.97-65.77-29.3-22.71-58.03-41.13-87.86-56.3-25.12-12.78-52.81-24.6-82.3-35.14-27.75-9.92-57.96-18.28-97.95-27.12l-3.37-.75c-32.71-7.23-66.53-14.71-100.31-18.67-20.48-2.4-40.81-3.61-60.58-3.61h-.02Z"/><path class="cls-4" d="m1406.87,1641.03c-20.35,13.61-41.09,26.6-62.05,39.25,1.67,14.2,1.8,29.22,2.67,43.22,1.28,20.46,3.42,38.5,2.15,56.41,37.18-23.22,67.87-42.59,92.63-58.06-.54-27.21-4.06-59.94-13.98-95.49-7.09,4.97-14.23,9.86-21.43,14.67h.01Z"/><path class="cls-2" d="m1346.82,1784.63l.34-4.9c.96-13.53-.08-27.37-1.17-42.02-.34-4.54-.69-9.24-.99-14.06-.29-4.7-.51-9.6-.72-14.35-.42-9.52-.85-19.37-1.95-28.74l-.19-1.6,1.38-.83c23.07-13.92,43.33-26.74,61.95-39.19h0c7.16-4.79,14.35-9.71,21.38-14.64l2.89-2.03.95,3.4c8.69,31.15,13.43,63.49,14.07,96.11l.03,1.42-1.2.75c-10.65,6.66-22.41,14.04-35.3,22.14-16.94,10.64-36.14,22.69-57.32,35.92l-4.16,2.6v.02Zm.67-103.04c.99,9.05,1.4,18.42,1.79,27.5.21,4.72.42,9.6.71,14.25.3,4.79.65,9.47.99,14,.98,13.11,1.9,25.58,1.43,37.89,19.57-12.23,37.39-23.42,53.23-33.37,12.42-7.8,23.77-14.93,34.11-21.39-.71-30.53-5.06-60.8-12.92-90.04-6.13,4.27-12.36,8.52-18.57,12.67h0c-18.31,12.24-38.2,24.84-60.77,38.48h0Z"/><path class="cls-4" d="m435.7,366.33l-17.41,1.52c5.81-.41,11.62-.93,17.41-1.52Z"/><path class="cls-2" d="m418.47,370.34l-.4-4.98,17.41-1.52.47,4.98c-5.91.61-11.79,1.12-17.49,1.53h0Z"/><path class="cls-4" d="m-.5-.5C1.73,8.59,3.9,17.62,6.2,26.62L-.5-.5Z"/><path class="cls-2" d="m3.78,27.23C2.03,20.4.33,13.43-1.32,6.68L-2.93.1,1.93-1.1l6.7,27.12-4.85,1.22h0Z"/><path class="cls-4" d="m91.18,3190.1c5.66-26.65,19.43-63.23,36.32-100.6,18.84-41.7,39.06-83.17,52-96,63.07-62.53,141.4-74.19,169-80,36.12-7.61,83.08-1.74,147,0,41.43,1.13,65.73,6.84,157,16,89.15,8.94,142.72,19.41,163,21,92.91,7.27,128.81,10.32,192,6,92.79-6.35,161.13-27.43,220-46,52.84-16.66,144.94-46.39,251-113,65.05-40.85,146.71-93.21,219-191,40.26-54.46,82.63-111.77,94-200,3.99-30.93,11.07-119.28-39-211-13.75-25.18-42.77-76.88-103-115-96.63-61.17-201.26-41.61-242-34-88.03,16.45-149.27,59.78-180,82-20.11,14.54-45.4,38.36-96,86-77.84,73.29-75.98,77.57-122,118-35.93,31.57-68.29,55.71-133,104-45.71,34.11-69.13,51.52-97,69-43.51,27.29-79.1,49.62-132,68-27.98,9.72-76.12,23.66-137,27-29.75,1.63-58.47,3.2-96-5-58.36-12.76-96.68-40.12-106-47-15.33-11.33-47.8-35.87-71-80-11.3-21.5-27.45-52.23-20-89,3.34-16.47,10.09-27.6,17-39,24.07-39.69,58.6-58.74,74-66,18.22-8.59,33.3-11.79,44-14,33.42-6.89,55.7-3.59,90-2,16.58.77,41.39.18,91-1,44.19-1.05,82.8-4.89,148-14,141.06-19.72,211.59-29.58,273-46,86.25-23.07,176.5-48.03,275-115,42.03-28.58,97.76-67.28,145-139,17.11-25.97,50.3-77.55,63-154,2.09-12.58,5.39-36.49,4.78-67.65-24.76,15.47-55.44,34.84-92.63,58.06-.71,10.1-2.5,20.16-6.15,30.59-6.21,17.76-20,40-30.48,55.76-19.11,28.73-38.32,57.02-63.84,80.15-25.26,22.9-53.08,43.92-81.38,62.91-30.42,20.4-62.91,37.28-96.4,52.03-28.39,12.51-57.16,24.4-86.32,35.04-33.42,12.2-67.47,22.68-101.96,31.42-29.63,7.5-59.57,13.68-89.8,18.21-31.65,4.74-63.5,8.03-95.32,11.35-35.34,3.69-70.69,7.67-106.12,10.35-25.55,1.93-51.1,2.67-76.7,1.47-25.5-1.2-50.87-4.2-76.36-5.52-34.95-1.81-70.35-2.24-105.25.74-14.06,1.2-27.99,3.24-41.86,5.77-16.76,3.06-33.62,6.13-49.72,11.83-31.41,11.11-58.39,31.87-79.3,57.57-14.1,17.33-27.07,36.43-37.48,56.22-15.32,29.13-24.47,61.41-24.93,94.41-.46,33.41,9.89,64.54,23.25,94.76,14.14,31.96,28.47,65.01,47.96,94.15,20.47,30.61,48.21,55.7,80.45,73.46,16.63,9.16,34.34,17.07,52.41,23,23.55,7.72,48.05,12.49,72.5,16.24,36.82,5.65,74.26,9.75,111.45,11.97,31.95,1.9,63.88.61,95.47-4.67,30.86-5.15,60.51-14.72,89.66-25.89,28.54-10.93,56.98-22.35,85.01-34.53,30.03-13.04,59.43-27.52,87.93-43.63,23.85-13.48,47.1-28.02,69.59-43.66,23.44-16.3,46.11-33.72,68.01-52.03,28.59-23.91,56.07-49.31,81.64-76.43,14.35-15.22,27.21-31.58,40.64-47.58,21.12-25.17,44.36-48.56,68.06-71.28,22.92-21.97,46.67-43.11,71.54-62.85,18.71-14.85,38.2-28.58,57.92-42.06,25.4-17.36,51.37-33.49,80.87-42.89,25.17-8.02,51.3-12.98,77.76-13.28,29.54-.34,59.45,4.98,87.12,15.4,26.83,10.1,51.73,25.58,72.28,45.61,20.37,19.86,36.83,43.84,48.17,69.92,14.81,34.05,20.22,71.35,17.08,108.27-2.41,28.39-9.1,57.21-19.12,83.85-11.01,29.29-27.16,56.05-45.85,81.04-19.96,26.69-41.64,51.79-66.63,73.91-25.32,22.42-53.08,41.79-80.81,61.07-20.33,14.13-40.85,28-61.95,40.96-27.64,16.98-56.18,32.5-85.53,46.33-35.97,16.94-73.13,31.4-111.11,43.18-34.36,10.66-69.39,18.99-104.81,25.24-29.72,5.25-59.67,9-89.63,12.58-26.7,3.2-53.48,5.6-80.33,7.16-35.54,2.06-71.15,2.69-106.74,1.89-29.63-.66-59.28-2.18-88.79-5.03-14.23-1.37-28.41-3.21-42.54-5.37-16.58-2.53-33.13-5.33-49.7-7.94-26.94-4.24-53.93-8.14-80.96-11.8-37.53-5.08-75.11-9.83-112.74-14.05-24.15-2.71-48.33-5.23-72.57-6.95-12.83-.91-25.72-1.67-38.6-1.46-6.16.1-12.29.5-18.38,1.4-14.06,2.07-28.02,4.85-41.8,8.33-24.79,6.27-49,14.89-72.09,25.88-29.81,14.19-57.71,32.39-82.42,54.3-19.64,17.42-37.1,37.1-52.19,58.57-21.73,30.93-37.93,65.18-50.36,100.8-11.53,33.04-19.76,67.28-24.34,101.97-.67,5.04-1.26,10.11-1.77,15.18l-1.82,43.23,85-1c-.43-6.73.55-15.36,2.68-25.4l.03.02Z"/><path class="cls-2" d="m.89,3219.03l1.94-46.01c.5-4.97,1.1-10.1,1.78-15.25,4.56-34.55,12.78-69.03,24.45-102.47,13.67-39.17,30.24-72.34,50.67-101.42,15.31-21.79,33-41.64,52.58-59,24.52-21.74,52.44-40.14,83.01-54.69,22.88-10.89,47.29-19.65,72.55-26.05,13.74-3.48,27.89-6.3,42.04-8.38,5.77-.85,11.89-1.32,18.7-1.43,12.25-.2,24.37.44,38.81,1.46,25.38,1.79,50.98,4.52,72.67,6.96,34.98,3.92,71.88,8.52,112.8,14.06,28.87,3.91,55.37,7.77,81.01,11.81,6.89,1.08,13.78,2.2,20.67,3.32,9.51,1.54,19.34,3.14,29.02,4.62,15.1,2.31,28.97,4.06,42.4,5.35,27.55,2.66,56.53,4.3,88.61,5.02,35.43.79,71.28.16,106.54-1.89,26.36-1.53,53.33-3.94,80.17-7.15,28.82-3.45,59.46-7.26,89.49-12.56,36.04-6.36,71.2-14.83,104.51-25.16,37.66-11.69,74.93-26.17,110.78-43.05,28.69-13.51,57.38-29.05,85.29-46.19,23.02-14.14,45.14-29.28,61.83-40.88,27.02-18.79,54.97-38.21,80.58-60.89,22.48-19.91,44.16-43.96,66.28-73.54,20.67-27.63,35.55-53.94,45.51-80.42,10.05-26.73,16.61-55.5,18.96-83.19,3.18-37.34-2.66-74.36-16.88-107.06-11.21-25.79-27.68-49.69-47.62-69.13-19.87-19.37-44.57-34.96-71.42-45.06-27.36-10.3-57.15-15.54-86.21-15.24-24.57.28-50.49,4.71-77.03,13.17-29.53,9.41-56.01,26.02-80.22,42.57-17.46,11.94-37.99,26.26-57.77,41.95-23.27,18.46-46.61,38.97-71.37,62.7-19.59,18.78-45.01,43.82-67.88,71.08-3.51,4.18-7.03,8.46-10.45,12.59-9.66,11.7-19.64,23.81-30.29,35.1-24.18,25.65-51.72,51.43-81.86,76.63-22.38,18.72-45.32,36.27-68.19,52.17-22.14,15.39-45.62,30.12-69.78,43.79-27.66,15.63-57.32,30.35-88.17,43.75-25.9,11.25-53.74,22.56-85.11,34.57-34.63,13.26-63.28,21.53-90.15,26.02-30.51,5.1-62.82,6.68-96.03,4.7-36.33-2.17-73.91-6.2-111.68-11.99-30.02-4.6-52.5-9.64-72.9-16.33-17.64-5.78-35.42-13.58-52.84-23.19-32.8-18.07-60.92-43.75-81.32-74.26-18.84-28.18-32.9-60-46.5-90.77l-1.66-3.76c-21.31-48.17-23.73-76.51-23.47-95.81.44-31.99,9.16-65.02,25.22-95.54,10.1-19.2,22.8-38.26,37.75-56.63,22.35-27.48,50.16-47.65,80.41-58.35,16.23-5.74,33.36-8.87,49.93-11.9l.18-.03c15.29-2.79,29.06-4.69,42.1-5.8,30.94-2.64,64.49-2.88,105.59-.75,12.33.64,24.81,1.69,36.88,2.7,12.93,1.08,26.3,2.21,39.47,2.82,23.68,1.11,48.67.63,76.39-1.47,28.83-2.18,58.1-5.28,86.4-8.28,6.55-.69,13.1-1.39,19.65-2.07l2.31-.24c30.52-3.18,62.07-6.48,92.9-11.09,28.98-4.34,59.11-10.45,89.55-18.16,34.33-8.69,68.55-19.24,101.71-31.34,26.6-9.71,54.79-21.15,86.17-34.98,36.78-16.21,68.18-33.16,96.01-51.82,30.49-20.45,57.78-41.54,81.09-62.68,24.37-22.1,42.4-48.05,63.44-79.69,15.25-22.93,25.41-41.5,30.2-55.2,3.29-9.41,5.26-19.21,6.02-29.94l.09-1.27,1.08-.67c21.17-13.23,40.37-25.28,57.31-35.92,12.9-8.1,24.66-15.48,35.31-22.14l3.74-2.34.09,4.41c.46,23.21-1.16,46.13-4.81,68.11-13.04,78.54-48.32,132.1-63.38,154.97-48.47,73.6-106.97,113.37-145.68,139.69-100.85,68.57-193.78,93.42-275.76,115.35-61.56,16.46-132.32,26.36-273.3,46.06-67.68,9.46-105.1,13-148.29,14.02-49.6,1.18-74.5,1.77-91.17,1-6.29-.29-12.14-.64-17.8-.97-24.92-1.48-44.6-2.64-71.58,2.92-10,2.06-25.12,5.18-43.44,13.81-17.51,8.25-50.27,27.67-72.93,65.03-6.91,11.39-13.43,22.16-16.69,38.2-7.28,35.9,8.35,65.63,19.76,87.34,23.4,44.53,56.25,68.79,70.27,79.15,13.65,10.08,51.2,34.8,105.05,46.57,37.2,8.13,65.44,6.58,95.33,4.95,46.48-2.55,92.34-11.59,136.32-26.87,52.63-18.29,87.43-40.12,131.49-67.76,28.35-17.78,52.67-35.93,96.83-68.89,64.57-48.18,96.99-72.37,132.84-103.87,23.38-20.54,34.46-31.82,49.8-47.43,15.11-15.38,33.92-34.53,72.14-70.51,50.61-47.65,76.01-71.57,96.25-86.21,27.12-19.61,90.63-65.54,181.01-82.43,40.02-7.48,146.33-27.35,243.8,34.35,62,39.25,91.33,92.97,103.86,115.91,46.93,85.97,44.76,170.05,39.29,212.52-11.45,88.87-53.66,145.96-94.47,201.17-74.05,100.17-158.22,153.03-219.68,191.63-108.5,68.14-201.57,97.5-251.58,113.27-55.96,17.65-125.59,39.61-220.58,46.11-61.73,4.23-97.87,1.4-185.2-5.44l-7.17-.56c-7.49-.59-19.37-2.36-35.82-4.8-28.15-4.19-70.7-10.53-127.24-16.2-37.78-3.79-63.91-6.97-84.9-9.52-29.78-3.62-47.75-5.81-71.92-6.47-17.73-.48-33.82-1.26-49.38-2.02-39.8-1.93-71.23-3.46-97.04,1.97-2.03.43-4.33.89-6.89,1.4-30.81,6.14-102.95,20.51-160.87,77.93-13.71,13.59-35.95,60.87-51.48,95.25-18.12,40.1-30.96,75.65-36.15,100.09-2.15,10.12-3.04,18.44-2.63,24.72l.17,2.63-90.27,1.06.05-.03Zm6.92-45.58l-1.71,40.52,79.8-.94c-.08-6.33.87-14.21,2.83-23.45l2.45.52-2.45-.52c6.75-31.77,23.57-72.52,36.49-101.11,24.95-55.22,41.64-85.96,52.52-96.75,58.99-58.48,132.16-73.06,163.41-79.29,2.53-.5,4.82-.96,6.83-1.38,26.43-5.57,58.15-4.02,98.31-2.07,15.54.76,31.6,1.54,49.27,2.02,24.41.66,42.47,2.86,72.39,6.5,20.97,2.55,47.06,5.73,84.79,9.51,56.65,5.68,99.27,12.03,127.47,16.23,16.35,2.43,28.15,4.19,35.47,4.77l7.17.56c87.07,6.82,123.11,9.64,184.47,5.44,94.39-6.46,163.72-28.32,219.42-45.89,49.79-15.7,142.47-44.93,250.42-112.73,61.12-38.39,144.83-90.96,218.32-190.37,40.43-54.69,82.25-111.25,93.53-198.83,5.39-41.87,7.54-124.76-38.71-209.48-12.34-22.6-41.23-75.53-102.14-114.09-95.8-60.64-200.71-41.04-240.2-33.66-89.28,16.69-152.15,62.15-179,81.57-19.98,14.45-45.3,38.29-95.75,85.79-38.14,35.91-56.91,55.02-72,70.37-15.41,15.69-26.55,27.02-50.07,47.68-36.01,31.64-68.47,55.86-133.16,104.13-44.27,33.03-68.65,51.23-97.17,69.11-44.33,27.81-79.34,49.77-132.51,68.24-44.41,15.43-90.74,24.56-137.68,27.13-30.24,1.66-58.81,3.22-96.67-5.05-54.79-11.98-93.05-37.16-106.95-47.43-14.3-10.56-47.79-35.31-71.73-80.85-11.1-21.11-27.87-53.02-20.24-90.66,3.43-16.9,10.49-28.54,17.31-39.8,23.34-38.49,57.05-58.48,75.07-66.97,18.86-8.89,34.33-12.08,44.56-14.19,27.63-5.7,47.6-4.52,72.89-3.02,5.64.33,11.47.68,17.73.97,16.5.76,41.34.17,90.82-1,42.97-1.02,80.25-4.55,147.71-13.98,140.78-19.68,211.43-29.55,272.7-45.94,81.6-21.82,174.09-46.56,274.24-114.65,38.38-26.1,96.39-65.54,144.32-138.31,14.89-22.6,49.75-75.54,62.62-153.03,3.37-20.28,4.98-41.38,4.81-62.77-9.64,6.03-20.14,12.63-31.54,19.78-16.65,10.46-35.49,22.29-56.25,35.25-.85,10.69-2.88,20.51-6.19,29.97-4.93,14.09-15.28,33.04-30.76,56.32-21.23,31.93-39.45,58.14-64.24,80.62-23.5,21.3-50.97,42.54-81.67,63.13-28.07,18.83-59.73,35.92-96.78,52.24-31.48,13.87-59.76,25.36-86.47,35.1-33.32,12.16-67.71,22.75-102.2,31.49-30.6,7.75-60.89,13.89-90.04,18.26-30.94,4.64-62.55,7.93-93.12,11.12l-2.31.24c-6.55.68-13.09,1.38-19.64,2.07-28.34,3-57.65,6.1-86.55,8.29-27.93,2.11-53.12,2.59-77,1.48-13.26-.62-26.67-1.75-39.65-2.83-12.03-1.01-24.48-2.05-36.73-2.69-40.86-2.12-74.19-1.88-104.9.74-12.88,1.1-26.5,2.98-41.63,5.74l-.18.03c-16.37,2.99-33.31,6.08-49.16,11.69-29.38,10.39-56.42,30.03-78.2,56.79-14.74,18.12-27.26,36.89-37.2,55.8-15.69,29.83-24.21,62.08-24.64,93.28-.49,35.77,12.05,68.88,23.04,93.72l1.66,3.76c13.51,30.58,27.49,62.19,46.09,90.01,19.95,29.84,47.47,54.97,79.58,72.66,17.15,9.45,34.64,17.13,51.99,22.81,20.13,6.6,42.37,11.58,72.1,16.14,37.62,5.77,75.04,9.79,111.22,11.94,32.83,1.96,64.76.4,94.9-4.64,26.53-4.43,54.87-12.62,89.18-25.76,31.3-11.99,59.08-23.27,84.91-34.49,30.68-13.33,60.19-27.97,87.7-43.52,24.03-13.58,47.38-28.23,69.39-43.54,22.74-15.81,45.57-33.27,67.83-51.9,29.99-25.08,57.38-50.72,81.43-76.23,10.54-11.18,20.47-23.21,30.07-34.85,3.42-4.14,6.95-8.43,10.47-12.62,23.03-27.44,48.57-52.62,68.25-71.48,24.87-23.84,48.33-44.45,71.72-63,19.91-15.8,40.52-30.18,58.06-42.17,24.53-16.76,51.38-33.6,81.53-43.2,27.02-8.61,53.42-13.12,78.49-13.4,29.65-.32,60.09,5.04,88.03,15.56,27.49,10.35,52.78,26.31,73.15,46.16,20.4,19.89,37.25,44.34,48.72,70.71,14.55,33.46,20.53,71.31,17.28,109.47-2.39,28.14-9.06,57.37-19.27,84.52-10.12,26.93-25.23,53.64-46.18,81.66-22.33,29.85-44.23,54.16-66.97,74.29-25.83,22.87-53.89,42.38-81.04,61.25-16.75,11.64-38.94,26.83-62.07,41.04-28.06,17.24-56.92,32.87-85.78,46.46-36.06,16.98-73.55,31.55-111.43,43.31-33.51,10.4-68.88,18.92-105.12,25.31-30.16,5.32-60.88,9.15-89.77,12.6-26.94,3.23-54.02,5.64-80.48,7.18-35.4,2.05-71.38,2.69-106.94,1.89-32.2-.72-61.3-2.37-88.97-5.04-13.53-1.3-27.49-3.07-42.68-5.39-9.7-1.48-19.55-3.08-29.07-4.62-6.88-1.12-13.76-2.23-20.65-3.32-25.61-4.03-52.07-7.89-80.9-11.79-40.88-5.53-77.74-10.13-112.69-14.04-21.65-2.43-47.18-5.15-72.47-6.94-14.31-1.01-26.31-1.65-38.38-1.45-6.6.11-12.5.56-18.06,1.38-13.99,2.06-27.97,4.85-41.55,8.28-24.95,6.31-49.05,14.97-71.63,25.71-30.14,14.35-57.68,32.49-81.84,53.91-19.29,17.1-36.71,36.66-51.8,58.13-20.16,28.69-36.53,61.46-50.04,100.19-11.56,33.12-19.71,67.26-24.22,101.48-.67,5.08-1.26,10.13-1.76,15.03l.02.07Z"/><path class="cls-4" d="m22,78c15,38,33,73,58,107,54,70,115,127,194,161,21.32,9.64,43.67,15.93,66.33,19.47l-40.57-9.57,40.57,9.57h0l9.51,1.32c12.06,1.48,24.18,2.21,36.26,2.27l31.95-1.2c.08,0,.15-.01.23-.02l17.41-1.52c27.48-2.82,54.79-7.46,81.99-12.11,15.33-2.62,30.68-5.13,45.83-8.66,11.87-2.76,23.61-6.07,35.32-9.43,19.69-5.64,39.36-11.38,59.06-16.99,34.86-9.92,69.81-19.51,104.76-29.08,31.88-8.73,63.77-17.47,95.74-25.87,23.49-6.17,47.03-12.15,70.72-17.54,30.33-6.91,60.88-12.93,91.4-18.93,30.57-6.01,61.26-11.68,92.22-15.3,27.48-3.21,55.12-4.58,82.77-3.8,35.6,1,71.15,4.97,106.13,11.68,29.12,5.59,57.89,13.11,85.95,22.69,17.37,5.93,34.5,12.64,51.17,20.34,19.05,8.8,37.53,18.83,55.42,29.77,30.25,18.49,58.78,39.93,86.38,62.15,24.94,20.07,48.7,42.04,67.28,68.28,16.37,23.13,27.86,49.12,34.78,76.55,7.86,31.12,9.16,63.94,2.01,95.34-7.46,32.75-23.9,62.86-46.77,87.39-11.84,12.7-25.32,24.07-39.74,33.77-13.41,9.02-28.31,15.74-43.44,21.31-30.82,11.34-63.29,18.07-95.73,22.76-37.23,5.38-74.87,7.51-112.47,6.61-31.24-.74-62.44-3.45-93.51-6.71-37.38-3.91-74.53-9.72-111.36-17.18-30.22-6.13-60.19-13.39-90.11-20.86-20.11-5.02-40.08-10.48-59.88-16.6-20.96-6.48-41.93-12.89-63.06-18.82-35.79-10.04-71.74-19.57-107.75-28.74-28.26-7.2-56.64-13.88-85.32-19.22-27.96-5.21-56.16-9.49-84.39-12.92-36.24-4.41-72.71-6.71-109.22-6.7-37.29.01-74.59,2.3-111.58,7.03-25.95,3.32-51.75,7.83-77.24,13.7-26.69,6.15-53.8,12.55-79.54,21.99-29.46,10.81-56.11,28.46-78.98,49.83-20.96,19.58-38.44,42.38-53.79,66.53-14.67,23.08-29.08,46.62-39.45,72.01-10.87,26.61-17.77,55.57-21.11,84.14-4.03,34.53-1.23,70.14,12.44,102.39,12.24,28.87,32.69,50.66,56.2,70.82,26.19,22.45,52.84,45.7,83.33,62.17,20.01,10.8,40.95,18.29,63.28,22.36,33.12,6.03,67.09,7.75,100.64,9.8,36.73,2.24,73.49,2.71,110.18-.45,15.78-1.36,31.47-3.24,47.05-6.07,21.29-3.87,42.37-8.92,63.3-14.41,35.5-9.3,70.69-19.89,105.59-31.23,27.42-8.91,54.58-18.55,81.48-28.92,21.12-8.13,42.13-16.53,63.46-24.1,26.45-9.39,53.26-17.79,80.39-25,27.17-7.22,54.68-13.09,82.32-18.2,33.99-6.28,68.15-11.61,102.29-16.97,38.33-6.02,76.71-11.66,115.27-16.03,29.31-3.33,58.71-6.02,88.16-7.74,21.22-1.24,42.47-1.98,63.73-1.94,14.17.02,28.34.4,42.49,1.26,22.59,1.37,45.19,3.61,67.51,7.42,33.55,5.73,66.08,15.88,96.14,31.98,24.06,12.89,47.84,26.99,67.68,45.95,25.51,24.38,42.68,56.07,48.04,91.06,5.33,34.8-.58,70.27-11.05,103.56-9.31,29.6-21.36,59.24-36.25,86.47-16.31,29.84-37.07,56.79-59.64,82.13-23.37,26.23-47.66,51.91-73.48,75.73-25.19,23.24-51.89,44.83-79.24,65.47-10.93,8.24-22,16.29-33.2,24.15h0c9.92,35.55,13.44,68.28,13.98,95.49h0c48.22-30.14,73.03-45.73,75.22-47.35,6.37-4.71,139.09-104.16,231-231,16.45-22.7,36.74-53.39,56-93,16.65-34.25,30.13-61.98,37-102,4.31-25.12,11.4-69.54-6-121-12.29-36.33-31.29-59.94-42-73-37.11-45.24-78.7-65.83-131-91-39.91-19.21-93.54-45.02-170-57-63.03-9.87-109.77-5.36-186,2-65.81,6.35-115.48,16.43-162,26-69.64,14.33-65.52,17.39-186,45-57.72,13.23-77.62,16.87-122,29-41.96,11.47-43.29,13.44-106,32-72.43,21.44-109.61,32.33-157,41-33.4,6.11-62.68,11.32-103,12-26.11.44-64.99-.89-110-11-35.92-8.07-54.45-16.95-64-22-19.62-10.38-33.07-21.42-41-28-20.76-17.22-33.15-27.5-41-44-8.85-18.61-7.02-35.66-3-69,4.75-39.32,7.45-61.77,22-88,21.01-37.89,52-57.13,70-68,31.39-18.97,58.44-24.66,98-33,10.08-2.12,49.57-10.12,104-11,28.01-.45,51.67,1.7,99,6,56.14,5.1,97.74,11.17,110,13,26.75,3.99,63.11,10.01,106,19,29.32,6.15,67.15,14.15,115,28,60.44,17.49,43.46,12.39,90,25,44.87,12.16,53.03,16.82,116,30,46.29,9.68,23.81,5.42,58,13,37.91,8.41,95.75,16.17,127,17,57.99,1.54,95.33.52,112-2,14.76-2.23,50.79-8.19,96-22,37.95-11.59,64.88-19.82,98-39,44.65-25.85,71.66-54.88,79-63,26.39-29.21,40.52-56.09,45-65,7.85-15.6,19.25-38.25,24-69,4.9-31.75,3.13-56.48-5-95-7.1-33.65-17.1-65.81-34-102-24.71-52.91-57.44-84.16-100-124-37.79-35.38-92.97-86.1-181-123-60.5-25.36-110.54-33.31-148-39-64.25-9.76-112.84-8.1-204-5-65.69,2.24-98.88,3.37-147,11-73.54,11.66-129.9,30.26-162,41-74.99,25.09-69.88,31.91-137,52-11.32,3.39-54.37,13.31-140,33-69.13,15.9-79.69,18.16-99,19-59.51,2.6-105.15-12.48-118-17-78.66-27.69-123.65-80.78-142-103-38.44-46.54-57.77-94.4-67.76-129.57-3.2-11.27-5.44-21.22-7.04-29.43H-.5L7.98,33.5c3.93,14.9,8.33,29.7,14.02,44.5Z"/><path class="cls-2" d="m1439.87,1726.3l-.09-4.41c-.63-32.2-5.31-64.12-13.89-94.87l-.48-1.7,1.45-1.02c11.17-7.83,22.32-15.94,33.14-24.1,30.52-23.02,56.38-44.38,79.05-65.31,22.99-21.22,46.29-45.23,73.31-75.56,25.91-29.09,44.76-55.04,59.31-81.67,14.08-25.77,26.21-54.71,36.05-86.02,12.06-38.35,15.64-71.86,10.96-102.43-5.22-34.05-21.57-65.05-47.29-89.63-20.06-19.17-44.12-33.22-67.13-45.55-28.06-15.04-60.15-25.71-95.38-31.72-20.24-3.45-42.23-5.87-67.24-7.39-13.47-.82-27.32-1.23-42.34-1.25-19.9-.04-40.67.6-63.58,1.94-27.62,1.62-56.42,4.14-88.03,7.73-42.14,4.78-83.68,11.07-115.17,16.02l-3.99.63c-32.25,5.06-65.6,10.3-98.23,16.33-30.47,5.63-57.34,11.57-82.13,18.16-26.22,6.96-53.2,15.35-80.19,24.94-16.1,5.72-32.31,12.01-47.98,18.11-5.14,2-10.28,3.99-15.42,5.97-26.93,10.37-54.39,20.12-81.61,28.96-38.23,12.42-72.82,22.65-105.73,31.27-24.83,6.5-45,11.09-63.49,14.45-14.29,2.59-29.75,4.59-47.28,6.1-32.92,2.84-69.08,2.99-110.55.46l-7.44-.45c-30.81-1.85-62.67-3.77-93.49-9.39-22.48-4.09-43.42-11.49-64.02-22.62-29.51-15.94-55.51-38.23-80.64-59.79l-3.13-2.68c-36.84-31.58-49.75-54.92-56.88-71.74-12.86-30.35-17.11-65.22-12.62-103.66,3.5-29.96,10.86-59.28,21.28-84.79,10.56-25.85,25.38-49.94,39.66-72.4,17.26-27.16,34.99-49.08,54.19-67.02,24.65-23.02,51.51-39.96,79.83-50.35,24.99-9.17,50.95-15.42,79.84-22.08,24.89-5.73,50.96-10.36,77.49-13.75,36.5-4.67,74.14-7.04,111.9-7.05h.23c35.89,0,72.65,2.26,109.29,6.72,28.79,3.5,57.23,7.86,84.54,12.95,25.15,4.69,52.31,10.81,85.47,19.26,38.74,9.87,74.01,19.28,107.81,28.76,21.65,6.07,43.06,12.64,63.12,18.84,18.59,5.75,38.14,11.16,59.75,16.56,28.72,7.17,59.49,14.66,90,20.84,37.33,7.57,74.71,13.33,111.13,17.14,27.36,2.86,59.85,5.9,93.31,6.69,37.89.9,75.6-1.32,112.05-6.59,37.91-5.48,68.16-12.67,95.22-22.63,17.52-6.45,31.15-13.13,42.91-21.04,14.53-9.77,27.75-21.01,39.3-33.4,22.96-24.63,38.93-54.45,46.16-86.24,6.75-29.67,6.06-62.24-2-94.17-7.06-27.98-18.64-53.46-34.4-75.72-15.93-22.51-36.54-43.41-66.8-67.77-33.29-26.8-59.85-45.91-86.12-61.96-18.43-11.27-36.99-21.24-55.17-29.64-15.73-7.27-32.87-14.08-50.92-20.25-27.4-9.35-56.21-16.96-85.62-22.6-35.11-6.74-70.69-10.65-105.73-11.63-26.78-.75-54.5.52-82.41,3.79-31.18,3.65-62.66,9.5-92.03,15.27-28.3,5.57-60.38,11.87-91.33,18.92-20.52,4.67-42.3,10.07-70.64,17.52-31.15,8.18-62.74,16.83-93.29,25.2l-2.42.66c-35.27,9.66-69.82,19.15-104.74,29.08-11.23,3.19-22.63,6.49-33.65,9.67-8.47,2.45-16.93,4.89-25.4,7.32-11.89,3.41-23.55,6.69-35.44,9.46-13.79,3.21-27.95,5.62-41.64,7.95l-4.34.74c-26.65,4.55-54.21,9.27-82.15,12.13l-17.72,1.54-32.09,1.21h-.05c-12.38-.06-24.68-.83-36.55-2.29l-9.69-1.35c-23.79-3.72-46.29-10.34-66.88-19.65-71.65-30.84-133.61-82.24-194.95-161.75-23.39-31.8-41.91-65.98-58.35-107.61v-.02c-4.99-12.95-9.47-27.17-14.11-44.76L-3.7-3h94.46l.4,2.02c1.92,9.81,4.27,19.64,6.99,29.22,13.56,47.74,36.2,91.03,67.28,128.66,16.76,20.3,61.29,74.21,140.9,102.23,20.74,7.3,63.52,19.2,117.06,16.86,18.89-.82,28.87-2.91,98.55-18.94,82.77-19.04,128.36-29.52,139.84-32.96,34.78-10.41,49.84-17.13,67.27-24.92,15.74-7.02,33.57-14.99,69.65-27.06,30.46-10.19,87.16-29.16,162.4-41.1,48.27-7.66,81.36-8.78,147.29-11.03,90.27-3.07,139.99-4.77,204.47,5.03,34.44,5.23,86.49,13.14,148.59,39.17,90.24,37.83,147.52,91.44,181.74,123.48,40.32,37.74,75.14,70.34,100.56,124.77,15.82,33.88,26.36,65.51,34.18,102.54,8.45,40.06,9.77,65.15,5.02,95.9-4.81,31.14-16.5,54.37-24.24,69.74-11.24,22.33-27.36,45.61-45.38,65.55-12.31,13.62-39.03,39.99-79.6,63.49-33.38,19.33-60.7,27.67-98.52,39.23-31.88,9.74-65.2,17.38-96.36,22.08-18.22,2.75-58.15,3.47-112.44,2.03-31.15-.83-89.53-8.64-127.47-17.06-14.28-3.17-18.76-4.29-22.36-5.19-5.03-1.26-8.66-2.17-35.61-7.8-44.07-9.22-61.29-14.26-83.09-20.65-9.16-2.68-19.54-5.72-33.05-9.38-13.58-3.68-21.58-5.81-28.01-7.52-15.14-4.02-19.2-5.1-62.03-17.5-48.74-14.1-86.93-22.11-114.82-27.95-35.05-7.35-70.66-13.73-105.86-18.97-33.27-4.96-72.29-9.57-109.86-12.98-47.2-4.29-70.87-6.44-98.73-5.99-48.6.78-85.72,7.19-103.52,10.95-39.86,8.4-66.19,13.95-97.22,32.69-16.77,10.13-47.99,28.99-69.11,67.07-14.31,25.8-16.94,47.57-21.7,87.09-4.12,34.18-5.6,50.03,2.78,67.63,7.61,16,19.93,26.22,40.34,43.15,7.26,6.03,20.78,17.24,40.57,27.71,6.12,3.24,24.74,13.09,63.38,21.77,35.11,7.89,71.93,11.57,109.41,10.94,40.94-.69,70.89-6.16,102.59-11.96,48.23-8.82,86.77-20.23,156.74-40.94,28.72-8.5,44.58-13.53,57.33-17.57,15.07-4.77,25.95-8.22,48.72-14.45,32.41-8.86,52.26-13.3,82.3-20.03,11.33-2.54,24.17-5.41,39.8-8.99,60.75-13.92,89.51-21.52,112.61-27.63,22.57-5.96,38.88-10.27,73.44-17.39,44.52-9.16,94.98-19.54,162.26-26.04,76.88-7.42,123.28-11.9,186.63-1.98,76.83,12.03,131.08,38.15,170.7,57.22,50.24,24.19,93.64,45.07,131.85,91.67,9.66,11.78,29.75,36.28,42.44,73.78,17.96,53.11,9.95,99.79,6.1,122.22-6.93,40.37-20.29,67.86-37.22,102.67-15.69,32.27-34.08,62.81-56.22,93.37-92.95,128.28-225.92,227.39-231.54,231.54-2.14,1.59-23.28,14.89-75.38,47.46l-3.74,2.34h0Zm-8.68-98.91c8.01,29.23,12.54,59.48,13.49,90.02,34.52-21.58,68.94-43.14,71.34-44.91,5.59-4.14,137.96-102.8,230.46-230.46,21.97-30.32,40.22-60.62,55.78-92.63,16.75-34.45,29.97-61.66,36.78-101.33,3.78-22.03,11.65-67.87-5.9-119.78-12.39-36.64-32.09-60.67-41.57-72.22-37.51-45.74-80.44-66.41-130.15-90.33-39.33-18.93-93.2-44.86-169.3-56.78-62.72-9.82-108.89-5.37-185.37,2.02-67.02,6.47-117.34,16.82-161.74,25.96-34.43,7.08-50.68,11.38-73.17,17.32-23.14,6.11-51.94,13.72-112.77,27.67-15.64,3.58-28.49,6.46-39.82,9-29.97,6.71-49.77,11.15-82.08,19.97-22.67,6.2-33.52,9.63-48.53,14.39-12.76,4.04-28.65,9.08-57.42,17.6-70.13,20.76-108.76,32.19-157.26,41.06-31.91,5.83-62.06,11.35-103.41,12.04-37.88.63-75.09-3.09-110.59-11.06-35.22-7.91-53.75-16.48-64.62-22.23-20.25-10.71-34.02-22.15-41.43-28.29-20.94-17.37-33.57-27.85-41.66-44.85-9.35-19.64-7.17-37.66-3.22-70.37,4.69-38.82,7.51-62.25,22.3-88.91,21.76-39.25,53.72-58.56,70.89-68.93,31.76-19.19,58.42-24.8,98.78-33.31,17.98-3.79,55.46-10.26,104.48-11.05,28.13-.45,51.89,1.7,99.22,6.01,37.71,3.43,76.83,8.05,110.19,13.02,35.29,5.26,71,11.66,106.14,19.03,27.96,5.86,66.26,13.89,115.18,28.05,42.77,12.38,46.83,13.46,61.92,17.47,6.44,1.71,14.44,3.84,28.04,7.52,13.56,3.67,23.97,6.72,33.15,9.41,21.7,6.35,38.83,11.37,82.71,20.55,27.05,5.66,30.72,6.58,35.8,7.85,3.57.89,8.02,2.01,22.23,5.16,37.69,8.36,95.64,16.12,126.53,16.94,54,1.44,93.62.74,111.56-1.97,30.92-4.67,63.99-12.25,95.64-21.92,37.5-11.46,64.6-19.73,97.48-38.77,39.99-23.16,66.28-49.11,78.4-62.51,17.73-19.62,33.58-42.51,44.62-64.45,7.6-15.09,19.08-37.9,23.76-68.26,4.7-30.46,3.45-54.2-4.98-94.1-7.73-36.64-18.16-67.93-33.82-101.46-25.01-53.55-59.5-85.84-99.44-123.23-33.98-31.81-90.84-85.04-180.26-122.52-61.53-25.79-113.21-33.64-147.41-38.83-64.03-9.72-113.58-8.04-203.54-4.97-65.74,2.24-98.73,3.36-146.69,10.97-74.83,11.87-131.28,30.76-161.6,40.9-35.85,12-53.57,19.9-69.2,26.88-17.6,7.86-32.79,14.64-67.88,25.14-11.17,3.34-51.04,12.54-140.16,33.04-70.07,16.12-80.13,18.22-99.45,19.06-54.39,2.37-97.86-9.72-118.94-17.14-80.92-28.49-126.09-83.18-143.1-103.77-31.53-38.17-54.49-82.07-68.24-130.48-2.57-9.06-4.82-18.33-6.69-27.61H2.7l7.71,30.89c4.58,17.36,9.01,31.42,13.92,44.19h0c16.27,41.22,34.6,75.04,57.69,106.44,60.76,78.76,122.09,129.68,192.97,160.18,8.19,3.71,16.69,6.97,25.45,9.79l40.35,9.52,9.4,1.31c11.62,1.42,23.71,2.18,35.88,2.24l32.05-1.21,17.37-1.52c27.74-2.85,55.21-7.54,81.78-12.08l4.34-.74c13.62-2.32,27.7-4.72,41.34-7.89,11.78-2.74,23.37-6.01,35.2-9.4,8.47-2.42,16.93-4.87,25.39-7.31,11.03-3.19,22.44-6.48,33.67-9.68,34.94-9.94,69.5-19.43,104.78-29.09l2.42-.66c30.56-8.37,62.17-17.02,93.34-25.21,28.39-7.46,50.22-12.87,70.8-17.56,31.02-7.06,63.14-13.38,91.47-18.95,29.47-5.79,61.06-11.66,92.41-15.33,28.15-3.29,56.12-4.58,83.13-3.82,35.31.99,71.15,4.94,106.53,11.72,29.64,5.68,58.67,13.35,86.29,22.78,18.22,6.22,35.52,13.1,51.41,20.44,18.35,8.48,37.08,18.54,55.68,29.91,26.46,16.17,53.18,35.4,86.64,62.34,30.64,24.67,51.54,45.88,67.75,68.78,16.12,22.77,27.95,48.81,35.17,77.39,8.25,32.69,8.95,66.06,2.03,96.5-7.43,32.65-23.81,63.26-47.38,88.54-11.81,12.67-25.33,24.15-40.17,34.14-12.1,8.14-26.07,15-43.97,21.58-27.39,10.08-57.97,17.35-96.23,22.89-36.73,5.31-74.71,7.55-112.89,6.64-33.64-.8-66.25-3.84-93.71-6.72-36.57-3.83-74.12-9.62-111.6-17.22-30.6-6.2-61.45-13.71-90.22-20.89-21.7-5.42-41.33-10.86-60.01-16.63-20.04-6.19-41.4-12.75-63-18.8-33.76-9.47-68.99-18.87-107.69-28.73-33.06-8.43-60.12-14.52-85.16-19.19-27.21-5.07-55.54-9.41-84.23-12.9-36.44-4.43-73-6.68-108.69-6.68h-.23c-37.54.01-74.98,2.37-111.26,7-26.37,3.37-52.27,7.97-77,13.66-28.73,6.62-54.52,12.83-79.24,21.9-27.69,10.15-53.98,26.75-78.13,49.31-18.89,17.65-36.36,39.25-53.39,66.04-14.15,22.27-28.84,46.15-39.25,71.61-10.25,25.1-17.49,53.96-20.94,83.48-4.39,37.56-.26,71.58,12.26,101.12,13.08,30.87,35.41,52.65,55.53,69.89l3.13,2.69c24.94,21.39,50.72,43.5,79.76,59.19,20.14,10.87,40.59,18.1,62.54,22.1,30.53,5.56,62.23,7.47,92.89,9.31l7.45.45c41.22,2.52,77.14,2.37,109.81-.45,17.37-1.5,32.69-3.47,46.82-6.04,18.36-3.33,38.41-7.9,63.11-14.36,32.82-8.59,67.31-18.79,105.45-31.19,27.13-8.82,54.51-18.53,81.36-28.87,5.14-1.98,10.27-3.97,15.4-5.97,15.71-6.1,31.95-12.42,48.12-18.16,27.12-9.63,54.23-18.06,80.58-25.06,24.92-6.62,51.9-12.58,82.51-18.24,32.7-6.04,66.08-11.29,98.36-16.36l3.99-.63c31.53-4.95,73.15-11.26,115.38-16.05,31.7-3.6,60.58-6.13,88.3-7.76,23.01-1.34,43.94-1.99,63.88-1.95,15.12.03,29.07.44,42.63,1.26,25.19,1.53,47.36,3.97,67.78,7.45,35.76,6.1,68.37,16.95,96.9,32.25,23.33,12.5,47.74,26.76,68.23,46.34,26.53,25.35,43.4,57.33,48.78,92.49,4.8,31.34,1.16,65.59-11.13,104.69-9.94,31.62-22.2,60.86-36.44,86.92-14.74,26.97-33.79,53.22-59.97,82.59-27.14,30.46-50.54,54.58-73.66,75.91-22.8,21.04-48.78,42.5-79.43,65.62-10.4,7.85-21.1,15.64-31.83,23.19h.03Z"/><path class="cls-4" d="m7.98,33.5L-.5-.5l6.7,27.12c.59,2.3,1.18,4.59,1.78,6.88Z"/><path class="cls-2" d="m5.56,34.14c-.61-2.3-1.2-4.6-1.79-6.9L-2.93.1,1.93-1.1l8.48,34-4.84,1.24h0Z"/><line class="cls-1" x1="1402.12" y1="1896.76" x2="1313.02" y2="1866.26"/><rect class="cls-2" x="1355.13" y="1834.59" width="5" height="94.18" transform="translate(-862.36 2556.6) rotate(-71.1)"/><line class="cls-1" x1="1294.2" y1="2034.27" x2="1230.28" y2="1962.82"/><rect class="cls-2" x="1259.73" y="1950.65" width="5" height="95.87" transform="translate(-1010.97 1350.4) rotate(-41.81)"/><line class="cls-1" x1="1129.83" y1="2138.68" x2="1093.73" y2="2051.1"/><rect class="cls-2" x="1109.24" y="2047.57" width="5" height="94.73" transform="translate(-714.43 581.72) rotate(-22.4)"/><line class="cls-1" x1="975.55" y1="2191.83" x2="960" y2="2108.83"/><rect class="cls-2" x="965.2" y="2108.17" width="5" height="84.44" transform="translate(-379.39 214.94) rotate(-10.61)"/><line class="cls-1" x1="846.81" y1="2219.44" x2="835.2" y2="2138.68"/><rect class="cls-2" x="838.32" y="2138.37" width="5" height="81.58" transform="translate(-301.5 141.81) rotate(-8.18)"/><line class="cls-1" x1="712.66" y1="2239.14" x2="698.01" y2="2157.37"/><rect class="cls-2" x="702.73" y="2156.78" width="5" height="83.07" transform="translate(-376.36 158.68) rotate(-10.15)"/><line class="cls-1" x1="567.39" y1="2256.07" x2="559.81" y2="2169.46"/><rect class="cls-2" x="560.92" y="2169.36" width="5" height="86.94" transform="translate(-190.72 57.53) rotate(-5)"/><line class="cls-1" x1="442.5" y1="2258.5" x2="438.83" y2="2163.67"/><rect class="cls-2" x="438.21" y="2163.63" width="5" height="94.9" transform="translate(-85.32 18.73) rotate(-2.22)"/><line class="cls-1" x1="329.29" y1="2266.34" x2="291.71" y2="2170.19"/><rect class="cls-2" x="307.89" y="2166.71" width="5" height="103.23" transform="translate(-785.97 265.05) rotate(-21.34)"/><line class="cls-1" x1="249.44" y1="2319.71" x2="136.14" y2="2276.76"/><rect class="cls-2" x="190.32" y="2237.55" width="5" height="121.17" transform="translate(-2024.45 1663.86) rotate(-69.24)"/><line class="cls-1" x1="217.96" y1="2420.02" x2="116.91" y2="2469.17"/><rect class="cls-2" x="111.08" y="2442.19" width="112.37" height="5" transform="translate(-1052.53 319.46) rotate(-25.94)"/><line class="cls-1" x1="272.69" y1="2517.44" x2="217.96" y2="2629.8"/><rect class="cls-2" x="182.83" y="2571.15" width="124.99" height="5" transform="translate(-2175.87 1667.2) rotate(-64.03)"/><line class="cls-1" x1="367.79" y1="2581.09" x2="351.95" y2="2687.57"/><rect class="cls-2" x="306.05" y="2631.88" width="107.65" height="5" transform="translate(-2298.78 2602.31) rotate(-81.53)"/><line class="cls-1" x1="492.88" y1="2601.38" x2="505.74" y2="2704.5"/><rect class="cls-2" x="497" y="2600.93" width="5" height="103.92" transform="translate(-324.52 82.23) rotate(-7.11)"/><line class="cls-1" x1="623.74" y1="2581.09" x2="690.46" y2="2666.64"/><rect class="cls-2" x="654.65" y="2569.56" width="5" height="108.49" transform="translate(-1474.61 958.94) rotate(-37.95)"/><line class="cls-1" x1="760.39" y1="2517.44" x2="846.38" y2="2595.07"/><rect class="cls-2" x="800.81" y="2498.49" width="5" height="115.85" transform="translate(-1632.44 1439.42) rotate(-47.92)"/><line class="cls-1" x1="876.5" y1="2436.5" x2="967.78" y2="2512.64"/><rect class="cls-2" x="919.57" y="2415.34" width="5" height="118.87" transform="translate(-1568.87 1597.32) rotate(-50.16)"/><line class="cls-1" x1="975.55" y1="2361.06" x2="1065.62" y2="2422.95"/><rect class="cls-2" x="1018.13" y="2337.17" width="5" height="109.29" transform="translate(-1528.71 1878.65) rotate(-55.51)"/><line class="cls-1" x1="1077.84" y1="2266.34" x2="1158.23" y2="2319.71"/><rect class="cls-2" x="1115.55" y="2244.7" width="5" height="96.49" transform="translate(-1410.63 1956.18) rotate(-56.42)"/><line class="cls-1" x1="1178.81" y1="2170.19" x2="1262.24" y2="2228.64"/><rect class="cls-2" x="1218.04" y="2148.27" width="5" height="101.87" transform="translate(-1280.97 1937.17) rotate(-54.99)"/><line class="cls-1" x1="1344.83" y1="2170.19" x2="1313.02" y2="2076.97"/><rect class="cls-2" x="1326.46" y="2074.28" width="5" height="98.5" transform="translate(-614.54 542.93) rotate(-18.84)"/><line class="cls-1" x1="1462.42" y1="2143" x2="1488.55" y2="2037.44"/><rect class="cls-2" x="1421.1" y="2087.7" width="108.75" height="5" transform="translate(-907.97 3020.34) rotate(-76.1)"/><line class="cls-1" x1="1575.49" y1="2170.19" x2="1649.5" y2="2080.5"/><rect class="cls-2" x="1554.34" y="2123.02" width="116.28" height="5" transform="translate(-1053.25 2016.82) rotate(-50.48)"/><line class="cls-1" x1="1760.48" y1="2211.09" x2="1650.98" y2="2239.14"/><rect class="cls-2" x="1649.16" y="2222.68" width="113.03" height="5" transform="translate(-498.58 492.55) rotate(-14.36)"/><rect class="cls-2" x="1687.68" y="2348.72" width="106.46" height="5"/><line class="cls-1" x1="1760.48" y1="2509.08" x2="1667.95" y2="2466.05"/><rect class="cls-2" x="1711.72" y="2436.55" width="5" height="102.04" transform="translate(-1264.22 2993) rotate(-65.06)"/><line class="cls-1" x1="1675.7" y1="2634.33" x2="1601.15" y2="2573.62"/><rect class="cls-2" x="1635.92" y="2555.94" width="5" height="96.14" transform="translate(-1415.34 2230.02) rotate(-50.84)"/><line class="cls-1" x1="1593.54" y1="2716.55" x2="1529.37" y2="2642.57"/><rect class="cls-2" x="1558.96" y="2630.56" width="5" height="97.94" transform="translate(-1373.87 1678.6) rotate(-40.94)"/><line class="cls-1" x1="1446.97" y1="2701" x2="1478.5" y2="2797.5"/><rect class="cls-2" x="1460.13" y="2698.61" width="5" height="101.52" transform="translate(-781.41 590.06) rotate(-18.09)"/><line class="cls-1" x1="1327.19" y1="2769.36" x2="1358.5" y2="2861"/><rect class="cls-2" x="1340.25" y="2766.86" width="5" height="96.84" transform="translate(-837.97 585.2) rotate(-18.86)"/><line class="cls-1" x1="1245.87" y1="2904.64" x2="1225.07" y2="2809.69"/><rect class="cls-2" x="1233.17" y="2808.42" width="5" height="97.2" transform="translate(-582.91 330.72) rotate(-12.36)"/><rect class="cls-2" x="1074.62" y="2843.21" width="5" height="105.34"/><rect class="cls-2" x="896.4" y="2859.31" width="5" height="97.33"/><line class="cls-1" x1="760.39" y1="2942.84" x2="774.15" y2="2856.72"/><rect class="cls-2" x="723.66" y="2897.3" width="87.21" height="5" transform="translate(-2217.28 3199.83) rotate(-80.92)"/><line class="cls-1" x1="653.54" y1="2841.08" x2="643.8" y2="2928.62"/><rect class="cls-2" x="604.66" y="2882.53" width="88.08" height="5" transform="translate(-2290.38 3210.66) rotate(-83.65)"/><line class="cls-1" x1="518.71" y1="2914.7" x2="537.65" y2="2824.65"/><rect class="cls-2" x="482.18" y="2867.14" width="92.02" height="5" transform="translate(-2388.73 2795.76) rotate(-78.12)"/><line class="cls-1" x1="414.77" y1="2810.54" x2="420.04" y2="2910.29"/><rect class="cls-2" x="414.76" y="2810.5" width="5" height="99.89" transform="translate(-150.12 25.96) rotate(-3.02)"/><line class="cls-1" x1="260.75" y1="2824.65" x2="294.42" y2="2926.42"/><rect class="cls-2" x="275.04" y="2821.96" width="5" height="107.19" transform="translate(-889.33 232.78) rotate(-18.31)"/><line class="cls-1" x1="133.98" y1="2896.74" x2="205.24" y2="2971.21"/><rect class="cls-2" x="167.02" y="2882.55" width="5" height="103.08" transform="translate(-1981.55 931.46) rotate(-43.74)"/><line class="cls-1" x1="56.46" y1="2997.33" x2="147.82" y2="3046.2"/><rect class="cls-2" x="99.71" y="2969.82" width="5" height="103.61" transform="translate(-2610.45 1686.67) rotate(-61.86)"/><line class="cls-1" x1="20.73" y1="3099.61" x2="112" y2="3130"/><rect class="cls-2" x="63.8" y="3066.89" width="5" height="96.2" transform="translate(-2910.04 2193.62) rotate(-71.58)"/><line class="cls-1" x1="1305.46" y1="1576.35" x2="1357.57" y2="1490.69"/><rect class="cls-2" x="1281.41" y="1531.19" width="100.27" height="5" transform="translate(-670.75 1874.31) rotate(-58.69)"/><line class="cls-1" x1="1204.67" y1="1468.52" x2="1240.44" y2="1375.51"/><rect class="cls-2" x="1172.72" y="1419.49" width="99.66" height="5" transform="translate(-543.55 2052.51) rotate(-68.96)"/><line class="cls-1" x1="1122.8" y1="1306.3" x2="1093.73" y2="1401.01"/><rect class="cls-2" x="1058.72" y="1351.11" width="99.07" height="5" transform="translate(-510.93 2015.98) rotate(-72.94)"/><line class="cls-1" x1="993.32" y1="1260.39" x2="975.55" y2="1359.02"/><rect class="cls-2" x="934.38" y="1307.29" width="100.21" height="5" transform="translate(-479.2 2046.27) rotate(-79.78)"/><line class="cls-1" x1="846.81" y1="1236.44" x2="831.64" y2="1330.04"/><rect class="cls-2" x="791.87" y="1280.84" width="94.82" height="5" transform="translate(-561.96 1906.15) rotate(-80.78)"/><line class="cls-1" x1="656.5" y1="1249.5" x2="674.14" y2="1334.61"/><rect class="cls-2" x="662.83" y="1248.6" width="5" height="86.92" transform="translate(-248.39 161.92) rotate(-11.71)"/><line class="cls-1" x1="480.33" y1="1292.05" x2="525.09" y2="1375.51"/><rect class="cls-2" x="500.19" y="1286.45" width="5" height="94.7" transform="translate(-570.78 396.05) rotate(-28.21)"/><line class="cls-1" x1="339.69" y1="1353.66" x2="434.82" y2="1422.01"/><rect class="cls-2" x="384.74" y="1329.29" width="5" height="117.14" transform="translate(-965.79 892.46) rotate(-54.3)"/><line class="cls-1" x1="221.16" y1="1457.77" x2="325.38" y2="1514.43"/><rect class="cls-2" x="270.79" y="1426.74" width="5" height="118.62" transform="translate(-1162.84 1016.39) rotate(-61.47)"/><line class="cls-1" x1="156.5" y1="1572.5" x2="279.47" y2="1598.77"/><rect class="cls-2" x="215.48" y="1522.82" width="5" height="125.74" transform="translate(-1378.25 1467.55) rotate(-77.94)"/><line class="cls-1" x1="123.1" y1="1721.85" x2="254.1" y2="1711.46"/><rect class="cls-2" x="122.85" y="1714.17" width="131.42" height="5" transform="translate(-135 20.26) rotate(-4.53)"/><line class="cls-1" x1="148.98" y1="1857.59" x2="264.83" y2="1834.38"/><rect class="cls-2" x="147.77" y="1843.5" width="118.15" height="5" transform="translate(-358.63 76.61) rotate(-11.33)"/><line class="cls-1" x1="206.91" y1="1971.05" x2="310.61" y2="1930"/><rect class="cls-2" x="202.88" y="1948.08" width="111.53" height="5" transform="translate(-699.59 232.02) rotate(-21.59)"/><line class="cls-1" x1="329.44" y1="2064.1" x2="390.79" y2="1983.32"/><rect class="cls-2" x="309.44" y="2021.14" width="101.43" height="5" transform="translate(-1469.32 1086.71) rotate(-52.79)"/><line class="cls-1" x1="495.21" y1="2107.04" x2="509.24" y2="2004.8"/><rect class="cls-2" x="450.61" y="2053.29" width="103.2" height="5" transform="translate(-1602.76 2273.98) rotate(-82.19)"/><line class="cls-1" x1="656.74" y1="2101.5" x2="645.35" y2="1999.78"/><rect class="cls-2" x="648.51" y="1999.48" width="5" height="102.35" transform="translate(-224.18 85.19) rotate(-6.39)"/><line class="cls-1" x1="824.44" y1="2055.73" x2="773.98" y2="1966.24"/><rect class="cls-2" x="796.6" y="1959.75" width="5" height="102.74" transform="translate(-884.59 651.58) rotate(-29.41)"/><line class="cls-1" x1="971.3" y1="1991.29" x2="910.74" y2="1908.77"/><rect class="cls-2" x="938.6" y="1898.7" width="5" height="102.36" transform="translate(-971.36 934.89) rotate(-36.28)"/><line class="cls-1" x1="1098.84" y1="1926.04" x2="1056.87" y2="1836.17"/><rect class="cls-2" x="1075.29" y="1831.62" width="5" height="99.19" transform="translate(-694.71 632.68) rotate(-25.03)"/><line class="cls-1" x1="1253.34" y1="1842.26" x2="1190.97" y2="1767.51"/><rect class="cls-2" x="1219.61" y="1756.38" width="5" height="97.35" transform="translate(-872.67 1202.01) rotate(-39.84)"/><line class="cls-1" x1="1493" y1="1576" x2="1575.49" y2="1627.34"/><rect class="cls-2" x="1531.72" y="1552.93" width="5" height="97.16" transform="translate(-636.08 2058.1) rotate(-58.11)"/><line class="cls-1" x1="1591.38" y1="1486.1" x2="1673.51" y2="1533.52"/><rect class="cls-2" x="1629.96" y="1462.45" width="5" height="94.84" transform="translate(-491.35 2168.69) rotate(-60)"/><line class="cls-1" x1="1673.88" y1="1378.87" x2="1763.46" y2="1422.01"/><rect class="cls-2" x="1716.1" y="1350.58" width="5" height="99.43" transform="translate(-288.62 2341.28) rotate(-64.29)"/><line class="cls-1" x1="1718.67" y1="1260.39" x2="1835.91" y2="1273.79"/><rect class="cls-2" x="1774.81" y="1208.11" width="5" height="118.01" transform="translate(316.58 2889.05) rotate(-83.48)"/><line class="cls-1" x1="1835.5" y1="1127.5" x2="1713.65" y2="1159.46"/><rect class="cls-2" x="1711.6" y="1140.96" width="125.97" height="5" transform="translate(-232.19 488.09) rotate(-14.71)"/><line class="cls-1" x1="1713.65" y1="989.45" x2="1649.5" y2="1078.43"/><rect class="cls-2" x="1626.7" y="1031.37" width="109.7" height="5" transform="translate(-140.35 1793.58) rotate(-54.22)"/><line class="cls-1" x1="1575.49" y1="926.74" x2="1545.71" y2="1028.02"/><rect class="cls-2" x="1507.78" y="974.84" width="105.56" height="5" transform="translate(182.8 2198.94) rotate(-73.62)"/><line class="cls-1" x1="1402.12" y1="901.11" x2="1399.32" y2="1011.18"/><rect class="cls-2" x="1345.78" y="953.73" width="110.11" height="5" transform="translate(409.23 2332.25) rotate(-88.54)"/><line class="cls-1" x1="1204.67" y1="922.68" x2="1222.56" y2="1023.87"/><rect class="cls-2" x="1211.09" y="921.95" width="5" height="102.76" transform="translate(-150.84 226) rotate(-10.02)"/><line class="cls-1" x1="1037.83" y1="960.52" x2="1056.87" y2="1049.08"/><rect class="cls-2" x="1044.87" y="959.47" width="5" height="90.59" transform="translate(-187.88 242.73) rotate(-12.14)"/><line class="cls-1" x1="863.6" y1="1001.36" x2="888.13" y2="1089.87"/><rect class="cls-2" x="873.3" y="999.77" width="5" height="91.85" transform="translate(-247.46 271.88) rotate(-15.49)"/><line class="cls-1" x1="665.32" y1="1059.53" x2="722.21" y2="1150.1"/><rect class="cls-2" x="691.22" y="1051.43" width="5" height="106.95" transform="translate(-481.39 538.17) rotate(-32.13)"/><line class="cls-1" x1="521.98" y1="1089.87" x2="506.27" y2="1201.8"/><rect class="cls-2" x="457.59" y="1143.25" width="113.03" height="5" transform="translate(-691.99 1495.6) rotate(-82.01)"/><line class="cls-1" x1="360.5" y1="1082.5" x2="295.45" y2="1192.45"/><rect class="cls-2" x="264.08" y="1135.03" width="127.75" height="5" transform="translate(-818.11 840.77) rotate(-59.4)"/><line class="cls-1" x1="255.5" y1="1032.5" x2="129.31" y2="1089.87"/><rect class="cls-2" x="123.07" y="1058.7" width="138.62" height="5" transform="translate(-421.98 174.79) rotate(-24.45)"/><line class="cls-1" x1="211.5" y1="919.5" x2="85.79" y2="901.11"/><rect class="cls-2" x="146.14" y="846.77" width="5" height="127.04" transform="translate(-773.57 925.64) rotate(-81.68)"/><line class="cls-1" x1="247.84" y1="810.02" x2="156.5" y2="755.45"/><rect class="cls-2" x="199.67" y="729.53" width="5" height="106.4" transform="translate(-573.45 554.78) rotate(-59.14)"/><line class="cls-1" x1="339.69" y1="746.27" x2="295.45" y2="654.94"/><rect class="cls-2" x="315.04" y="649.9" width="5" height="101.48" transform="translate(-273.63 208.46) rotate(-25.84)"/><line class="cls-1" x1="480.33" y1="720.43" x2="460.89" y2="623.18"/><rect class="cls-2" x="468.08" y="622.25" width="5" height="99.18" transform="translate(-122.52 105.23) rotate(-11.3)"/><line class="cls-1" x1="604.5" y1="725.5" x2="651.11" y2="626.2"/><rect class="cls-2" x="572.96" y="673.38" width="109.7" height="5" transform="translate(-250.81 956.93) rotate(-64.85)"/><line class="cls-1" x1="757.41" y1="746" x2="793" y2="651"/><rect class="cls-2" x="724.44" y="695.94" width="101.45" height="5" transform="translate(-150.76 1179.44) rotate(-69.47)"/><line class="cls-1" x1="898.86" y1="775.76" x2="910.67" y2="681.85"/><rect class="cls-2" x="857.46" y="726.33" width="94.65" height="5" transform="translate(68.87 1535.72) rotate(-82.84)"/><line class="cls-1" x1="1036.32" y1="811.88" x2="1054.34" y2="721.77"/><rect class="cls-2" x="999.39" y="764.33" width="91.89" height="5" transform="translate(88.39 1641.48) rotate(-78.69)"/><line class="cls-1" x1="1141.5" y1="840.5" x2="1161.84" y2="747.29"/><rect class="cls-2" x="1104.05" y="791.48" width="95.41" height="5" transform="translate(130.31 1749.8) rotate(-77.68)"/><rect class="cls-2" x="1269.14" y="762.41" width="5" height="103.23"/><line class="cls-1" x1="1392.28" y1="766.82" x2="1413.58" y2="870.54"/><rect class="cls-2" x="1400.42" y="765.76" width="5" height="105.88" transform="translate(-135.97 298.82) rotate(-11.6)"/><line class="cls-1" x1="1511.35" y1="750.82" x2="1575.49" y2="833.41"/><rect class="cls-2" x="1540.9" y="739.7" width="5" height="104.58" transform="translate(-161.32 1113.35) rotate(-37.84)"/><line class="cls-1" x1="1621.63" y1="698.5" x2="1711.5" y2="744.5"/><rect class="cls-2" x="1664.15" y="671.12" width="5" height="100.96" transform="translate(264.84 1876.3) rotate(-62.89)"/><line class="cls-1" x1="1679.1" y1="614.71" x2="1777.38" y2="626.2"/><rect class="cls-2" x="1725.79" y="571" width="5" height="98.95" transform="translate(911.28 2265) rotate(-83.33)"/><line class="cls-1" x1="1688.17" y1="531.2" x2="1775.5" y2="515.5"/><rect class="cls-2" x="1687.46" y="520.94" width="88.73" height="5" transform="translate(-65.29 314.64) rotate(-10.19)"/><line class="cls-1" x1="1741.5" y1="413.5" x2="1658.51" y2="440.18"/><rect class="cls-2" x="1656.42" y="424.45" width="87.17" height="5" transform="translate(-49.08 541.04) rotate(-17.83)"/><line class="cls-1" x1="1666.57" y1="313.3" x2="1591.62" y2="364.36"/><rect class="cls-2" x="1583.76" y="336.36" width="90.69" height="5" transform="translate(91.9 975.9) rotate(-34.26)"/><line class="cls-1" x1="1556.6" y1="219.13" x2="1494.18" y2="293.09"/><rect class="cls-2" x="1477.06" y="253.68" width="96.78" height="5" transform="translate(345.69 1256.58) rotate(-49.83)"/><line class="cls-1" x1="1443.24" y1="159.62" x2="1408.62" y2="250.61"/><rect class="cls-2" x="1377.22" y="202.61" width="97.35" height="5" transform="translate(727.15 1464.87) rotate(-69.17)"/><line class="cls-1" x1="1312.5" y1="127.5" x2="1301.64" y2="220.29"/><rect class="cls-2" x="1260.3" y="171.37" width="93.42" height="5" transform="translate(982.5 1451.84) rotate(-83.33)"/><line class="cls-1" x1="1161.84" y1="120.8" x2="1171.76" y2="205.11"/><rect class="cls-2" x="1164.3" y="120.44" width="5" height="84.89" transform="translate(-11.04 137.45) rotate(-6.71)"/><line class="cls-1" x1="1020.1" y1="126.58" x2="1045.33" y2="220.29"/><rect class="cls-2" x="1030.22" y="124.86" width="5" height="97.05" transform="translate(-9.56 274.47) rotate(-15.07)"/><line class="cls-1" x1="880.37" y1="150.28" x2="910.67" y2="250.61"/><rect class="cls-2" x="893.01" y="147.99" width="5" height="104.8" transform="translate(-19.69 267.54) rotate(-16.81)"/><line class="cls-1" x1="767.59" y1="185.81" x2="801.09" y2="279.56"/><rect class="cls-2" x="781.84" y="182.97" width="5" height="99.55" transform="translate(-32.58 277.45) rotate(-19.66)"/><line class="cls-1" x1="662.5" y1="226.5" x2="685.1" y2="311.47"/><rect class="cls-2" x="671.29" y="225.03" width="5" height="87.93" transform="translate(-46.5 182.17) rotate(-14.89)"/><line class="cls-1" x1="550.34" y1="256.09" x2="563.16" y2="348.42"/><rect class="cls-2" x="554.27" y="255.6" width="5" height="93.21" transform="translate(-36.29 79.5) rotate(-7.91)"/><line class="cls-1" x1="451.37" y1="276.1" x2="440.7" y2="366.33"/><rect class="cls-2" x="400.6" y="318.71" width="90.86" height="5" transform="translate(74.69 726.46) rotate(-83.26)"/><line class="cls-1" x1="361.09" y1="275.11" x2="317.57" y2="360.11"/><rect class="cls-2" x="291.59" y="315.1" width="95.49" height="5" transform="translate(-98.01 474.92) rotate(-62.89)"/><line class="cls-1" x1="258.09" y1="239.96" x2="190.48" y2="297.33"/><rect class="cls-2" x="179.95" y="266.13" width="88.67" height="5" transform="translate(-120.54 208.94) rotate(-40.32)"/><line class="cls-1" x1="172.63" y1="169.31" x2="96.02" y2="205.11"/><rect class="cls-2" x="92.04" y="184.72" width="84.56" height="5" transform="translate(-66.64 74.48) rotate(-25.05)"/><line class="cls-1" x1="112.79" y1="76.22" x2="33.3" y2="104.69"/><rect class="cls-2" x="30.82" y="87.95" width="84.44" height="5" transform="translate(-26.22 29.92) rotate(-19.7)"/></svg>