<?xml version="1.0" encoding="UTF-8"?><svg id="Layer_1" xmlns="http://www.w3.org/2000/svg" width="1920" height="3216" viewBox="0 0 1920 3216"><defs><style>.cls-1,.cls-2{stroke-width:5px;}.cls-1,.cls-2,.cls-3{stroke:#311e00;stroke-miterlimit:10;}.cls-1,.cls-3{fill:#f2aebb;}.cls-2{fill:#f5e9b5;}</style></defs><path class="cls-3" d="m3.41,3207.36l.09,9.14,1.82-43.23c-1.15,11.33-1.85,22.71-1.91,34.09Z"/><path class="cls-3" d="m3.5,3216.5l-.09-9.14c-.01,3.05,0,6.1.09,9.14Z"/><path class="cls-2" d="m88.5-1.5L-.5-.5h89.2c-.06-.33-.13-.68-.2-1Z"/><path class="cls-2" d="m349.84,366.8l-9.51-1.32c3.16.49,6.34.93,9.51,1.32Z"/><path class="cls-2" d="m418.12,367.86h.17c-.08,0-.15,0-.23,0h.06Z"/><path class="cls-2" d="m366.22,369.07h19.89s0,0,0,0c-12.08-.06-24.2-.79-36.26-2.27l16.37,2.28Z"/><path class="cls-2" d="m1347.5,1723.5c-.88-14-1.01-29.02-2.67-43.22-1.55.94-3.1,1.88-4.66,2.81-29.25,17.55-58.88,34.47-88.65,51.15-34.41,19.28-68.97,38.31-103.55,57.28-28.68,15.73-57.45,31.33-86.45,46.46-27.12,14.15-54.47,27.85-82.07,41.03-32.6,15.56-65.51,30.53-98.71,44.76-27.9,11.96-56.04,23.4-84.57,33.77-19.84,7.21-39.88,13.9-60.19,19.7-15.83,4.52-31.83,8.43-47.93,11.9-34.18,7.36-68.83,12.83-103.73,15.22-22.77,1.56-45.64,1.75-68.42.17-29.79-2.07-60.06-4.97-89.17-11.74-35.39-8.23-68.05-24.2-95.61-47.98-23.03-19.87-41.89-44.32-55.92-71.27-8.41-16.17-15.17-33.26-19.74-50.92-9.53-36.84-7.3-73.94-1.35-111.15,5.14-32.2,10.39-64.72,19.83-95.99,11.01-36.45,28.19-70.84,51.44-101.04,21.08-27.38,46.97-50.16,75.27-69.82,29.5-20.49,60.28-39.53,92.68-55.09,28.15-13.52,57.45-24.51,87.39-33.34,30.68-9.04,61.83-16.5,93.42-21.57,27.8-4.47,55.91-7.3,84.07-8.04,24.52-.65,49.08.61,73.44,3.47,35.05,4.11,69.51,11.85,103.93,19.46,33.24,7.34,66.17,15.74,98.25,27.21,28.13,10.06,55.95,21.72,82.59,35.27,31.28,15.91,60.54,35.06,88.26,56.55,25.34,19.65,48.87,41.44,69.36,66.15,20.29,24.47,39.52,51.02,53.55,79.61,9.93,20.24,13.95,41,16.91,63.21.12.92.22,1.85.33,2.78,20.95-12.64,41.7-25.64,62.05-39.25,7.2-4.81,14.34-9.7,21.43-14.67-1.46-5.23-3.05-10.52-4.8-15.86-23.64-72.29-62.57-117.29-95-154-84.1-95.21-177.97-138.03-223-158-21.23-9.42-105.93-45.73-224-58-96.48-10.03-170.22.67-225,9-43.99,6.69-120.86,18.86-214,57-67.89,27.8-120.8,49.47-176,101-15.7,14.65-73.36,70.72-110,165-16.07,41.36-47.79,126.31-26,233,8.39,41.07,29.05,106.6,82,168,53.53,62.07,113.24,88.8,139,100,62.54,27.18,115.41,31.24,156,34,85.33,5.8,149.51-8.38,209-22,97.53-22.33,166.78-53.27,249-90,80.39-35.91,140.15-69.03,176-89,44.57-24.83,72.91-42.4,170-103,11.75-7.33,23.27-14.3,34-21,1.4-.87,2.77-1.73,4.15-2.59,1.26-17.91-.88-35.95-2.15-56.41Z"/><path class="cls-2" d="m1406.87,1641.03c-20.35,13.61-41.09,26.6-62.05,39.25,1.67,14.2,1.8,29.22,2.67,43.22,1.28,20.46,3.42,38.5,2.15,56.41,37.18-23.22,67.87-42.59,92.63-58.06-.54-27.21-4.06-59.94-13.98-95.49-7.09,4.97-14.23,9.86-21.43,14.67Z"/><path class="cls-2" d="m435.7,366.33l-17.41,1.52c5.81-.41,11.62-.93,17.41-1.52Z"/><path class="cls-2" d="m-.5-.5C1.73,8.59,3.9,17.62,6.2,26.62L-.5-.5Z"/><path class="cls-2" d="m91.18,3190.1c5.66-26.65,19.43-63.23,36.32-100.6,18.84-41.7,39.06-83.17,52-96,63.07-62.53,141.4-74.19,169-80,36.12-7.61,83.08-1.74,147,0,41.43,1.13,65.73,6.84,157,16,89.15,8.94,142.72,19.41,163,21,92.91,7.27,128.81,10.32,192,6,92.79-6.35,161.13-27.43,220-46,52.84-16.66,144.94-46.39,251-113,65.05-40.85,146.71-93.21,219-191,40.26-54.46,82.63-111.77,94-200,3.99-30.93,11.07-119.28-39-211-13.75-25.18-42.77-76.88-103-115-96.63-61.17-201.26-41.61-242-34-88.03,16.45-149.27,59.78-180,82-20.11,14.54-45.4,38.36-96,86-77.84,73.29-75.98,77.57-122,118-35.93,31.57-68.29,55.71-133,104-45.71,34.11-69.13,51.52-97,69-43.51,27.29-79.1,49.62-132,68-27.98,9.72-76.12,23.66-137,27-29.75,1.63-58.47,3.2-96-5-58.36-12.76-96.68-40.12-106-47-15.33-11.33-47.8-35.87-71-80-11.3-21.5-27.45-52.23-20-89,3.34-16.47,10.09-27.6,17-39,24.07-39.69,58.6-58.74,74-66,18.22-8.59,33.3-11.79,44-14,33.42-6.89,55.7-3.59,90-2,16.58.77,41.39.18,91-1,44.19-1.05,82.8-4.89,148-14,141.06-19.72,211.59-29.58,273-46,86.25-23.07,176.5-48.03,275-115,42.03-28.58,97.76-67.28,145-139,17.11-25.97,50.3-77.55,63-154,2.09-12.58,5.39-36.49,4.78-67.65-24.76,15.47-55.44,34.84-92.63,58.06-.71,10.1-2.5,20.16-6.15,30.59-6.21,17.76-20,40-30.48,55.76-19.11,28.73-38.32,57.02-63.84,80.15-25.26,22.9-53.08,43.92-81.38,62.91-30.42,20.4-62.91,37.28-96.4,52.03-28.39,12.51-57.16,24.4-86.32,35.04-33.42,12.2-67.47,22.68-101.96,31.42-29.63,7.5-59.57,13.68-89.8,18.21-31.65,4.74-63.5,8.03-95.32,11.35-35.34,3.69-70.69,7.67-106.12,10.35-25.55,1.93-51.1,2.67-76.7,1.47-25.5-1.2-50.87-4.2-76.36-5.52-34.95-1.81-70.35-2.24-105.25.74-14.06,1.2-27.99,3.24-41.86,5.77-16.76,3.06-33.62,6.13-49.72,11.83-31.41,11.11-58.39,31.87-79.3,57.57-14.1,17.33-27.07,36.43-37.48,56.22-15.32,29.13-24.47,61.41-24.93,94.41-.46,33.41,9.89,64.54,23.25,94.76,14.14,31.96,28.47,65.01,47.96,94.15,20.47,30.61,48.21,55.7,80.45,73.46,16.63,9.16,34.34,17.07,52.41,23,23.55,7.72,48.05,12.49,72.5,16.24,36.82,5.65,74.26,9.75,111.45,11.97,31.95,1.9,63.88.61,95.47-4.67,30.86-5.15,60.51-14.72,89.66-25.89,28.54-10.93,56.98-22.35,85.01-34.53,30.03-13.04,59.43-27.52,87.93-43.63,23.85-13.48,47.1-28.02,69.59-43.66,23.44-16.3,46.11-33.72,68.01-52.03,28.59-23.91,56.07-49.31,81.64-76.43,14.35-15.22,27.21-31.58,40.64-47.58,21.12-25.17,44.36-48.56,68.06-71.28,22.92-21.97,46.67-43.11,71.54-62.85,18.71-14.85,38.2-28.58,57.92-42.06,25.4-17.36,51.37-33.49,80.87-42.89,25.17-8.02,51.3-12.98,77.76-13.28,29.54-.34,59.45,4.98,87.12,15.4,26.83,10.1,51.73,25.58,72.28,45.61,20.37,19.86,36.83,43.84,48.17,69.92,14.81,34.05,20.22,71.35,17.08,108.27-2.41,28.39-9.1,57.21-19.12,83.85-11.01,29.29-27.16,56.05-45.85,81.04-19.96,26.69-41.64,51.79-66.63,73.91-25.32,22.42-53.08,41.79-80.81,61.07-20.33,14.13-40.85,28-61.95,40.96-27.64,16.98-56.18,32.5-85.53,46.33-35.97,16.94-73.13,31.4-111.11,43.18-34.36,10.66-69.39,18.99-104.81,25.24-29.72,5.25-59.67,9-89.63,12.58-26.7,3.2-53.48,5.6-80.33,7.16-35.54,2.06-71.15,2.69-106.74,1.89-29.63-.66-59.28-2.18-88.79-5.03-14.23-1.37-28.41-3.21-42.54-5.37-16.58-2.53-33.13-5.33-49.7-7.94-26.94-4.24-53.93-8.14-80.96-11.8-37.53-5.08-75.11-9.83-112.74-14.05-24.15-2.71-48.33-5.23-72.57-6.95-12.83-.91-25.72-1.67-38.6-1.46-6.16.1-12.29.5-18.38,1.4-14.06,2.07-28.02,4.85-41.8,8.33-24.79,6.27-49,14.89-72.09,25.88-29.81,14.19-57.71,32.39-82.42,54.3-19.64,17.42-37.1,37.1-52.19,58.57-21.73,30.93-37.93,65.18-50.36,100.8-11.53,33.04-19.76,67.28-24.34,101.97-.67,5.04-1.26,10.11-1.77,15.18l-1.82,43.23,85-1c-.43-6.73.55-15.36,2.68-25.4Z"/><path class="cls-2" d="m22,78c15,38,33,73,58,107,54,70,115,127,194,161,21.32,9.64,43.67,15.93,66.33,19.47l-40.57-9.57,40.57,9.57s0,0,0,0l9.51,1.32c12.06,1.48,24.18,2.21,36.26,2.27l31.95-1.2c.08,0,.15-.01.23-.02l17.41-1.52c27.48-2.82,54.79-7.46,81.99-12.11,15.33-2.62,30.68-5.13,45.83-8.66,11.87-2.76,23.61-6.07,35.32-9.43,19.69-5.64,39.36-11.38,59.06-16.99,34.86-9.92,69.81-19.51,104.76-29.08,31.88-8.73,63.77-17.47,95.74-25.87,23.49-6.17,47.03-12.15,70.72-17.54,30.33-6.91,60.88-12.93,91.4-18.93,30.57-6.01,61.26-11.68,92.22-15.3,27.48-3.21,55.12-4.58,82.77-3.8,35.6,1,71.15,4.97,106.13,11.68,29.12,5.59,57.89,13.11,85.95,22.69,17.37,5.93,34.5,12.64,51.17,20.34,19.05,8.8,37.53,18.83,55.42,29.77,30.25,18.49,58.78,39.93,86.38,62.15,24.94,20.07,48.7,42.04,67.28,68.28,16.37,23.13,27.86,49.12,34.78,76.55,7.86,31.12,9.16,63.94,2.01,95.34-7.46,32.75-23.9,62.86-46.77,87.39-11.84,12.7-25.32,24.07-39.74,33.77-13.41,9.02-28.31,15.74-43.44,21.31-30.82,11.34-63.29,18.07-95.73,22.76-37.23,5.38-74.87,7.51-112.47,6.61-31.24-.74-62.44-3.45-93.51-6.71-37.38-3.91-74.53-9.72-111.36-17.18-30.22-6.13-60.19-13.39-90.11-20.86-20.11-5.02-40.08-10.48-59.88-16.6-20.96-6.48-41.93-12.89-63.06-18.82-35.79-10.04-71.74-19.57-107.75-28.74-28.26-7.2-56.64-13.88-85.32-19.22-27.96-5.21-56.16-9.49-84.39-12.92-36.24-4.41-72.71-6.71-109.22-6.7-37.29.01-74.59,2.3-111.58,7.03-25.95,3.32-51.75,7.83-77.24,13.7-26.69,6.15-53.8,12.55-79.54,21.99-29.46,10.81-56.11,28.46-78.98,49.83-20.96,19.58-38.44,42.38-53.79,66.53-14.67,23.08-29.08,46.62-39.45,72.01-10.87,26.61-17.77,55.57-21.11,84.14-4.03,34.53-1.23,70.14,12.44,102.39,12.24,28.87,32.69,50.66,56.2,70.82,26.19,22.45,52.84,45.7,83.33,62.17,20.01,10.8,40.95,18.29,63.28,22.36,33.12,6.03,67.09,7.75,100.64,9.8,36.73,2.24,73.49,2.71,110.18-.45,15.78-1.36,31.47-3.24,47.05-6.07,21.29-3.87,42.37-8.92,63.3-14.41,35.5-9.3,70.69-19.89,105.59-31.23,27.42-8.91,54.58-18.55,81.48-28.92,21.12-8.13,42.13-16.53,63.46-24.1,26.45-9.39,53.26-17.79,80.39-25,27.17-7.22,54.68-13.09,82.32-18.2,33.99-6.28,68.15-11.61,102.29-16.97,38.33-6.02,76.71-11.66,115.27-16.03,29.31-3.33,58.71-6.02,88.16-7.74,21.22-1.24,42.47-1.98,63.73-1.94,14.17.02,28.34.4,42.49,1.26,22.59,1.37,45.19,3.61,67.51,7.42,33.55,5.73,66.08,15.88,96.14,31.98,24.06,12.89,47.84,26.99,67.68,45.95,25.51,24.38,42.68,56.07,48.04,91.06,5.33,34.8-.58,70.27-11.05,103.56-9.31,29.6-21.36,59.24-36.25,86.47-16.31,29.84-37.07,56.79-59.64,82.13-23.37,26.23-47.66,51.91-73.48,75.73-25.19,23.24-51.89,44.83-79.24,65.47-10.93,8.24-22,16.29-33.2,24.15,0,0,0,0,0,0,9.92,35.55,13.44,68.28,13.98,95.49,0,0,0,0,0,0,48.22-30.14,73.03-45.73,75.22-47.35,6.37-4.71,139.09-104.16,231-231,16.45-22.7,36.74-53.39,56-93,16.65-34.25,30.13-61.98,37-102,4.31-25.12,11.4-69.54-6-121-12.29-36.33-31.29-59.94-42-73-37.11-45.24-78.7-65.83-131-91-39.91-19.21-93.54-45.02-170-57-63.03-9.87-109.77-5.36-186,2-65.81,6.35-115.48,16.43-162,26-69.64,14.33-65.52,17.39-186,45-57.72,13.23-77.62,16.87-122,29-41.96,11.47-43.29,13.44-106,32-72.43,21.44-109.61,32.33-157,41-33.4,6.11-62.68,11.32-103,12-26.11.44-64.99-.89-110-11-35.92-8.07-54.45-16.95-64-22-19.62-10.38-33.07-21.42-41-28-20.76-17.22-33.15-27.5-41-44-8.85-18.61-7.02-35.66-3-69,4.75-39.32,7.45-61.77,22-88,21.01-37.89,52-57.13,70-68,31.39-18.97,58.44-24.66,98-33,10.08-2.12,49.57-10.12,104-11,28.01-.45,51.67,1.7,99,6,56.14,5.1,97.74,11.17,110,13,26.75,3.99,63.11,10.01,106,19,29.32,6.15,67.15,14.15,115,28,60.44,17.49,43.46,12.39,90,25,44.87,12.16,53.03,16.82,116,30,46.29,9.68,23.81,5.42,58,13,37.91,8.41,95.75,16.17,127,17,57.99,1.54,95.33.52,112-2,14.76-2.23,50.79-8.19,96-22,37.95-11.59,64.88-19.82,98-39,44.65-25.85,71.66-54.88,79-63,26.39-29.21,40.52-56.09,45-65,7.85-15.6,19.25-38.25,24-69,4.9-31.75,3.13-56.48-5-95-7.1-33.65-17.1-65.81-34-102-24.71-52.91-57.44-84.16-100-124-37.79-35.38-92.97-86.1-181-123-60.5-25.36-110.54-33.31-148-39-64.25-9.76-112.84-8.1-204-5-65.69,2.24-98.88,3.37-147,11-73.54,11.66-129.9,30.26-162,41-74.99,25.09-69.88,31.91-137,52-11.32,3.39-54.37,13.31-140,33-69.13,15.9-79.69,18.16-99,19-59.51,2.6-105.15-12.48-118-17-78.66-27.69-123.65-80.78-142-103-38.44-46.54-57.77-94.4-67.76-129.57-3.2-11.27-5.44-21.22-7.04-29.43H-.5L7.98,33.5c3.93,14.9,8.33,29.7,14.02,44.5Z"/><path class="cls-2" d="m7.98,33.5L-.5-.5l6.7,27.12c.59,2.3,1.18,4.59,1.78,6.88Z"/><line class="cls-1" x1="1402.12" y1="1896.76" x2="1313.02" y2="1866.26"/><line class="cls-1" x1="1294.2" y1="2034.27" x2="1230.28" y2="1962.82"/><line class="cls-1" x1="1129.83" y1="2138.68" x2="1093.73" y2="2051.1"/><line class="cls-1" x1="975.55" y1="2191.83" x2="960" y2="2108.83"/><line class="cls-1" x1="846.81" y1="2219.44" x2="835.2" y2="2138.68"/><line class="cls-1" x1="712.66" y1="2239.14" x2="698.01" y2="2157.37"/><line class="cls-1" x1="567.39" y1="2256.07" x2="559.81" y2="2169.46"/><line class="cls-1" x1="442.5" y1="2258.5" x2="438.83" y2="2163.67"/><line class="cls-1" x1="329.29" y1="2266.34" x2="291.71" y2="2170.19"/><line class="cls-1" x1="249.44" y1="2319.71" x2="136.14" y2="2276.76"/><line class="cls-1" x1="217.96" y1="2420.02" x2="116.91" y2="2469.17"/><line class="cls-1" x1="272.69" y1="2517.44" x2="217.96" y2="2629.8"/><line class="cls-1" x1="367.79" y1="2581.09" x2="351.95" y2="2687.57"/><line class="cls-1" x1="492.88" y1="2601.38" x2="505.74" y2="2704.5"/><line class="cls-1" x1="623.74" y1="2581.09" x2="690.46" y2="2666.64"/><line class="cls-1" x1="760.39" y1="2517.44" x2="846.38" y2="2595.07"/><line class="cls-1" x1="876.5" y1="2436.5" x2="967.78" y2="2512.64"/><line class="cls-1" x1="975.55" y1="2361.06" x2="1065.62" y2="2422.95"/><line class="cls-1" x1="1077.84" y1="2266.34" x2="1158.23" y2="2319.71"/><line class="cls-1" x1="1178.81" y1="2170.19" x2="1262.24" y2="2228.64"/><line class="cls-1" x1="1344.83" y1="2170.19" x2="1313.02" y2="2076.97"/><line class="cls-1" x1="1462.42" y1="2143" x2="1488.55" y2="2037.44"/><line class="cls-1" x1="1575.49" y1="2170.19" x2="1649.5" y2="2080.5"/><line class="cls-1" x1="1760.48" y1="2211.09" x2="1650.98" y2="2239.14"/><line class="cls-1" x1="1794.14" y1="2351.22" x2="1687.68" y2="2351.22"/><line class="cls-1" x1="1760.48" y1="2509.08" x2="1667.95" y2="2466.05"/><line class="cls-1" x1="1675.7" y1="2634.33" x2="1601.15" y2="2573.62"/><line class="cls-1" x1="1593.54" y1="2716.55" x2="1529.37" y2="2642.57"/><line class="cls-1" x1="1446.97" y1="2701" x2="1478.5" y2="2797.5"/><line class="cls-1" x1="1327.19" y1="2769.36" x2="1358.5" y2="2861"/><line class="cls-1" x1="1245.87" y1="2904.64" x2="1225.07" y2="2809.69"/><line class="cls-1" x1="1077.12" y1="2843.21" x2="1077.12" y2="2948.55"/><line class="cls-1" x1="898.9" y1="2859.31" x2="898.9" y2="2956.64"/><line class="cls-1" x1="760.39" y1="2942.84" x2="774.15" y2="2856.72"/><line class="cls-1" x1="653.54" y1="2841.08" x2="643.8" y2="2928.62"/><line class="cls-1" x1="518.71" y1="2914.7" x2="537.65" y2="2824.65"/><line class="cls-1" x1="414.77" y1="2810.54" x2="420.04" y2="2910.29"/><line class="cls-1" x1="260.75" y1="2824.65" x2="294.42" y2="2926.42"/><line class="cls-1" x1="133.98" y1="2896.74" x2="205.24" y2="2971.21"/><line class="cls-1" x1="56.46" y1="2997.33" x2="147.82" y2="3046.2"/><line class="cls-1" x1="20.73" y1="3099.61" x2="112" y2="3130"/><line class="cls-2" x1="1305.46" y1="1576.35" x2="1357.57" y2="1490.69"/><line class="cls-2" x1="1204.67" y1="1468.52" x2="1240.44" y2="1375.51"/><line class="cls-2" x1="1122.8" y1="1306.3" x2="1093.73" y2="1401.01"/><line class="cls-2" x1="993.32" y1="1260.39" x2="975.55" y2="1359.02"/><line class="cls-2" x1="846.81" y1="1236.44" x2="831.64" y2="1330.04"/><line class="cls-2" x1="656.5" y1="1249.5" x2="674.14" y2="1334.61"/><line class="cls-2" x1="480.33" y1="1292.05" x2="525.09" y2="1375.51"/><line class="cls-2" x1="339.69" y1="1353.66" x2="434.82" y2="1422.01"/><line class="cls-2" x1="221.16" y1="1457.77" x2="325.38" y2="1514.43"/><line class="cls-2" x1="156.5" y1="1572.5" x2="279.47" y2="1598.77"/><line class="cls-2" x1="123.1" y1="1721.85" x2="254.1" y2="1711.46"/><line class="cls-2" x1="148.98" y1="1857.59" x2="264.83" y2="1834.38"/><line class="cls-2" x1="206.91" y1="1971.05" x2="310.61" y2="1930"/><line class="cls-2" x1="329.44" y1="2064.1" x2="390.79" y2="1983.32"/><line class="cls-2" x1="495.21" y1="2107.04" x2="509.24" y2="2004.8"/><line class="cls-2" x1="656.74" y1="2101.5" x2="645.35" y2="1999.78"/><line class="cls-2" x1="824.44" y1="2055.73" x2="773.98" y2="1966.24"/><line class="cls-2" x1="971.3" y1="1991.29" x2="910.74" y2="1908.77"/><line class="cls-2" x1="1098.84" y1="1926.04" x2="1056.87" y2="1836.17"/><line class="cls-2" x1="1253.34" y1="1842.26" x2="1190.97" y2="1767.51"/><line class="cls-2" x1="1488.55" y1="1572.5" x2="1575.49" y2="1627.34"/><line class="cls-2" x1="1591.38" y1="1486.1" x2="1673.51" y2="1533.52"/><line class="cls-2" x1="1673.88" y1="1378.87" x2="1763.46" y2="1422.01"/><line class="cls-2" x1="1718.67" y1="1260.39" x2="1835.91" y2="1273.79"/><line class="cls-2" x1="1835.5" y1="1127.5" x2="1713.65" y2="1159.46"/><line class="cls-2" x1="1713.65" y1="989.45" x2="1649.5" y2="1078.43"/><line class="cls-2" x1="1575.49" y1="926.74" x2="1545.71" y2="1028.02"/><line class="cls-2" x1="1402.12" y1="901.11" x2="1399.32" y2="1011.18"/><line class="cls-2" x1="1204.67" y1="922.68" x2="1222.56" y2="1023.87"/><line class="cls-2" x1="1037.83" y1="960.52" x2="1056.87" y2="1049.08"/><line class="cls-2" x1="863.6" y1="1001.36" x2="888.13" y2="1089.87"/><line class="cls-2" x1="665.32" y1="1059.53" x2="722.21" y2="1150.1"/><line class="cls-2" x1="521.98" y1="1089.87" x2="506.27" y2="1201.8"/><line class="cls-2" x1="360.5" y1="1082.5" x2="295.45" y2="1192.45"/><line class="cls-2" x1="255.5" y1="1032.5" x2="129.31" y2="1089.87"/><line class="cls-2" x1="211.5" y1="919.5" x2="85.79" y2="901.11"/><line class="cls-2" x1="247.84" y1="810.02" x2="156.5" y2="755.45"/><line class="cls-2" x1="339.69" y1="746.27" x2="295.45" y2="654.94"/><line class="cls-2" x1="480.33" y1="720.43" x2="460.89" y2="623.18"/><line class="cls-2" x1="604.5" y1="725.5" x2="651.11" y2="626.2"/><line class="cls-2" x1="757.41" y1="746" x2="793" y2="651"/><line class="cls-2" x1="898.86" y1="775.76" x2="910.67" y2="681.85"/><line class="cls-2" x1="1036.32" y1="811.88" x2="1054.34" y2="721.77"/><line class="cls-2" x1="1141.5" y1="840.5" x2="1161.84" y2="747.29"/><line class="cls-2" x1="1271.64" y1="762.41" x2="1271.64" y2="865.64"/><line class="cls-2" x1="1392.28" y1="766.82" x2="1413.58" y2="870.54"/><line class="cls-2" x1="1511.35" y1="750.82" x2="1575.49" y2="833.41"/><line class="cls-2" x1="1621.63" y1="698.5" x2="1711.5" y2="744.5"/><line class="cls-2" x1="1679.1" y1="614.71" x2="1777.38" y2="626.2"/><line class="cls-2" x1="1688.17" y1="531.2" x2="1775.5" y2="515.5"/><line class="cls-2" x1="1741.5" y1="413.5" x2="1658.51" y2="440.18"/><line class="cls-2" x1="1666.57" y1="313.3" x2="1591.62" y2="364.36"/><line class="cls-2" x1="1556.6" y1="219.13" x2="1494.18" y2="293.09"/><line class="cls-2" x1="1443.24" y1="159.62" x2="1408.62" y2="250.61"/><line class="cls-2" x1="1312.5" y1="127.5" x2="1301.64" y2="220.29"/><line class="cls-2" x1="1161.84" y1="120.8" x2="1171.76" y2="205.11"/><line class="cls-2" x1="1020.1" y1="126.58" x2="1045.33" y2="220.29"/><line class="cls-2" x1="880.37" y1="150.28" x2="910.67" y2="250.61"/><line class="cls-2" x1="767.59" y1="185.81" x2="801.09" y2="279.56"/><line class="cls-2" x1="662.5" y1="226.5" x2="685.1" y2="311.47"/><line class="cls-2" x1="550.34" y1="256.09" x2="563.16" y2="348.42"/><line class="cls-2" x1="451.37" y1="276.1" x2="440.7" y2="366.33"/><line class="cls-2" x1="361.09" y1="275.11" x2="317.57" y2="360.11"/><line class="cls-2" x1="258.09" y1="239.96" x2="190.48" y2="297.33"/><line class="cls-2" x1="172.63" y1="169.31" x2="96.02" y2="205.11"/><line class="cls-2" x1="112.79" y1="76.22" x2="33.3" y2="104.69"/></svg>