<?xml version="1.0" encoding="UTF-8"?><svg id="Layer_1" xmlns="http://www.w3.org/2000/svg" width="137.66" height="202.66" viewBox="0 0 137.66 202.66"><defs><style>.cls-1{fill:#b71f32;}</style></defs><path id="Path_11" class="cls-1" d="m0,202.65c.22-2.55.84-5.05,1.84-7.4,3.63-9.09,11.93-15.48,21.64-16.67,1.1-.15,2.2-.21,3.31-.19,28.03-.01,56.07-.01,84.11,0,13.03.08,24.15,9.45,26.44,22.28.11.64.19,1.28.31,1.99l-137.66-.02Z"/><path id="Path_12" class="cls-1" d="m0,202.65c.22-2.55.84-5.05,1.84-7.4,3.63-9.09,11.93-15.48,21.64-16.67,1.1-.15,2.2-.21,3.31-.19,28.03-.01,56.07-.01,84.11,0,13.03.08,24.15,9.45,26.44,22.28.11.64.19,1.28.31,1.99l-137.66-.02Z"/><path id="Path_13" class="cls-1" d="m114.96,173H22.66v-13.32c-.19-1.57.93-2.99,2.5-3.18,0,0,0,0,0,0,.23-.03.45-.03.68,0h85.98c1.56-.17,2.96.95,3.14,2.51,0,0,0,0,0,.01.02.2.02.4,0,.6v13.36"/><path id="Path_14" class="cls-1" d="m114.96,173H22.66v-13.32c-.19-1.57.93-2.99,2.5-3.18,0,0,0,0,0,0,.23-.03.45-.03.68,0h85.98c1.56-.17,2.96.95,3.14,2.51,0,0,0,0,0,.01.02.2.02.4,0,.6v13.36"/><path id="Path_15" class="cls-1" d="m103.62,150.55c-2.5-4.7-4.65-9.58-6.44-14.6-3.3-9.22-5.79-18.72-7.43-28.38-1.09-6.26-1.9-12.56-2.41-18.9-.14-1.77-.29-3.55-.44-5.37h-37.65c-1.67,23.64-6.02,46.56-17.01,67.88h71.66c-.12-.28-.19-.47-.27-.64"/><path id="Path_16" class="cls-1" d="m103.62,150.55c-2.5-4.7-4.65-9.58-6.44-14.6-3.3-9.22-5.79-18.72-7.43-28.38-1.09-6.26-1.9-12.56-2.41-18.9-.14-1.77-.29-3.55-.44-5.37h-37.65c-1.67,23.64-6.02,46.56-17.01,67.88h71.66c-.12-.28-.19-.47-.27-.64"/><path id="Path_17" class="cls-1" d="m48.13,61.34c.41.3.91.47,1.43.49,6.41.03,12.83.02,19.24.02s12.88,0,19.32-.02c.44,0,.87-.14,1.23-.4,10.93-8.76,15.58-20.11,13-33.87C98.67,9.04,80.69-3.01,62.17.66c-17.19,3.4-29.02,19.24-27.41,36.69.86,9.53,5.72,18.25,13.37,23.99"/><path id="Path_18" class="cls-1" d="m48.13,61.34c.41.3.91.47,1.43.49,6.41.03,12.83.02,19.24.02s12.88,0,19.32-.02c.44,0,.87-.14,1.23-.4,10.93-8.76,15.58-20.11,13-33.87C98.67,9.04,80.69-3.01,62.17.66c-17.19,3.4-29.02,19.24-27.41,36.69.86,9.53,5.72,18.25,13.37,23.99"/><path id="Path_19" class="cls-1" d="m97.18,67.15h-55.15c-.33,0-.65,0-.98.04-2.95.39-5.03,3.1-4.64,6.05.36,2.71,2.69,4.73,5.43,4.68h55.68c2.98.06,5.44-2.31,5.49-5.29.01-.62-.08-1.24-.28-1.82-.81-2.34-3.09-3.85-5.57-3.66"/><path id="Path_20" class="cls-1" d="m97.18,67.15h-55.15c-.33,0-.65,0-.98.04-2.95.39-5.03,3.1-4.64,6.05.36,2.71,2.69,4.73,5.43,4.68h55.68c2.98.06,5.44-2.31,5.49-5.29.01-.62-.08-1.24-.28-1.82-.81-2.34-3.09-3.85-5.57-3.66"/></svg>