<?xml version="1.0" encoding="UTF-8"?><svg id="Layer_1" xmlns="http://www.w3.org/2000/svg" width="149.74" height="131" viewBox="0 0 149.74 131"><path d="m108.79,115.81H40.92c0,1.03,0,2.02,0,3.02,0,1.95.03,3.91.02,5.86,0,3.57-2.76,6.31-6.32,6.31-2.82,0-5.65,0-8.47,0-3.49,0-6.27-2.79-6.27-6.29,0-2.77-.01-5.54.01-8.31,0-.52-.14-.7-.68-.8-4.24-.77-7.54-4.73-7.54-9.04,0-5.28-.05-10.56.04-15.83.05-3.07.44-6.12,1.99-8.86.61-1.08,1.5-2.01,2.25-3.02.18-.24.41-.53.41-.79.02-4.09.01-8.18,0-12.27,0-.05-.03-.1-.08-.23-.25-.01-.53-.04-.81-.04-2.38,0-4.75,0-7.13,0-2.27-.01-3.68-1.45-3.68-3.73,0-.65,0-1.31,0-2.09-.77,0-1.47,0-2.18,0-1.53-.02-2.5-.95-2.5-2.46,0-4.72,0-9.45,0-14.17,0-2.95,0-5.91-.01-8.86,0-1.64.96-2.61,2.59-2.61.66,0,1.31,0,2.09,0,0-.76,0-1.47,0-2.17,0-2.15,1.45-3.64,3.6-3.65,2.69-.02,5.38,0,8.02,0,.31-2.09.52-4.16.93-6.19.85-4.2,2.58-8.01,5.5-11.21,3.02-3.31,6.79-5.36,11.04-6.63C38.71.24,43.77-.04,48.88.03c1.69.02,3.38,0,5.07,0,14.6,0,29.19,0,43.79,0,3.59,0,7.18-.05,10.76.01,4.5.09,8.85.91,12.86,3.09,4.55,2.48,7.6,6.25,9.56,10.98,1.48,3.57,2.11,7.33,2.37,11.16,0,.13.03.26.05.5.34,0,.67,0,1,0,2.38,0,4.75-.01,7.13,0,2.16.01,3.59,1.48,3.59,3.65,0,.68,0,1.36,0,2.16.72,0,1.37,0,2.01,0,1.72,0,2.67.93,2.67,2.62,0,7.62,0,15.25,0,22.87,0,1.7-.95,2.62-2.67,2.62-.63,0-1.26,0-2.02,0,0,.73,0,1.4,0,2.08,0,2.3-1.43,3.74-3.75,3.75-2.4.01-4.8.02-7.21,0-.58,0-.77.15-.77.75.03,3.75,0,7.5.03,11.24,0,.31.12.7.33.9,2.54,2.46,3.67,5.57,4.02,8.97.26,2.62.31,5.26.34,7.89.05,3.75.01,7.5.01,11.24,0,4.28-3.22,8.26-7.42,9.06-.71.13-.81.42-.8,1.03.02,2.72.02,5.44.01,8.16,0,3.46-2.77,6.24-6.22,6.25-2.82,0-5.65,0-8.47,0-3.67-.01-6.37-2.74-6.37-6.43,0-2.61,0-5.23,0-7.84,0-.28,0-.57,0-.92Zm-31.54-52.63c.39,0,.73,0,1.06,0,9.5,0,18.99,0,28.49,0,5.62,0,11.24.02,16.86-.01,2.93-.01,5-1.92,5.01-4.67.03-7.07.02-14.14,0-21.21,0-1.81-.55-3.48-1.57-4.97-2.01-2.94-4.86-4.22-8.37-4.22-13.56.01-27.12,0-40.69,0-.27,0-.53.05-.8.07v35.01Zm-4.74-35.08c-.39,0-.68,0-.96,0-13.4,0-26.81,0-40.21,0-.55,0-1.11.03-1.66.08-4.85.44-8.53,4.24-8.58,9.11-.08,7.07-.03,14.14-.02,21.21,0,1.12.39,2.11,1.1,2.98,1.08,1.31,2.53,1.71,4.16,1.71,5.49-.01,10.97,0,16.46,0,9.55,0,19.1,0,28.65,0,.34,0,.67,0,1.07,0V28.09Zm2.34-7.01c7.26,0,14.51,0,21.77,0,3.23,0,5.18-1.96,5.19-5.17,0-1.4.01-2.8-.01-4.2-.04-2.04-1.27-3.87-3.25-4.36-1.33-.33-2.76-.31-4.14-.32-13.56-.02-27.13-.02-40.69-.02-.37,0-.74,0-1.11.03-2.78.21-4.6,2.14-4.63,4.92-.01,1.4-.06,2.8.02,4.19.04.77.19,1.6.52,2.28.89,1.85,2.49,2.63,4.51,2.63,7.28,0,14.56,0,21.85,0Zm-.06,66.65c7.6,0,15.2,0,22.8,0,.42,0,.85-.02,1.26-.1.82-.16,1.57-.98,1.7-1.79.15-.97-.08-1.86-.96-2.32-.6-.31-1.34-.46-2.02-.47-15.09-.03-30.18-.02-45.28-.02-.39,0-.8,0-1.18.06-1.69.28-2.48,2.18-1.52,3.59.59.87,1.44,1.05,2.41,1.05,7.6,0,15.2,0,22.8,0Zm.02,18.71c7.6,0,15.2,0,22.8,0,.32,0,.64.01.95-.03,1.16-.17,2.01-1.13,2.03-2.27.03-1.18-.75-2.12-1.94-2.32-.36-.06-.73-.08-1.1-.08-15.12,0-30.23,0-45.35,0-.39,0-.79.02-1.18.1-1.67.33-2.4,2.28-1.38,3.64.6.8,1.44.98,2.38.98,7.6-.01,15.2,0,22.8,0Zm.07-9.37h0c7.54,0,15.09,0,22.63,0,.45,0,.9,0,1.33-.11,1.55-.37,2.23-2.19,1.35-3.52-.62-.95-1.58-1.05-2.58-1.06-4.8-.01-9.6-.03-14.4-.03-10.34,0-20.68.02-31.02.04-.42,0-.85.02-1.26.11-1.53.33-2.24,2.06-1.45,3.41.6,1.02,1.55,1.16,2.59,1.16,7.6,0,15.19,0,22.79,0Zm45.62-6.99c-4.52.01-8.18,3.65-8.17,8.12,0,4.53,3.68,8.24,8.17,8.23,4.5,0,8.19-3.72,8.17-8.23-.01-4.48-3.69-8.13-8.17-8.12Zm-91.27,0c-4.55.03-8.17,3.68-8.16,8.22,0,4.42,3.77,8.15,8.2,8.13,4.47-.02,8.17-3.73,8.14-8.17-.03-4.58-3.66-8.21-8.19-8.18Zm-12.83-26.91c0-.45,0-.76,0-1.07,0-9.63,0-19.27,0-28.9,0-1.48-.02-2.96,0-4.43,0-.51-.15-.7-.67-.69-1.29.03-2.58.01-3.88.01-1.13,0-2.27-.02-3.4,0-.6.01-1.25.15-1.32.86-.09.85-.02,1.71-.02,2.61.7,0,1.33,0,1.96,0,1.69.01,2.61.91,2.61,2.58,0,7.65,0,15.31,0,22.96,0,1.66-.93,2.56-2.62,2.57-.65,0-1.3,0-2.01,0,0,.76-.01,1.41,0,2.07.02,1,.38,1.38,1.4,1.4,1.24.03,2.48.01,3.72.01,1.37,0,2.73,0,4.22,0Zm126.3-31.6c0-.6,0-1.1,0-1.6,0-1.61-.29-1.89-1.88-1.9-2.16,0-4.33.04-6.49-.02-.82-.02-1,.23-1,1.02.03,11,.02,22.01.02,33.01,0,.18-.06.4.02.55.11.2.32.5.49.5,2.53.03,5.07.03,7.6,0,.55,0,1.11-.22,1.17-.85.08-.85.02-1.71.02-2.62-.79,0-1.5.02-2.21,0-1.43-.04-2.37-.99-2.37-2.41,0-7.76,0-15.52,0-23.28,0-1.41.96-2.38,2.37-2.41.71-.02,1.42,0,2.26,0Zm-22.22-17.59c-.01-3.16-2.64-5.75-5.82-5.74-3.23,0-5.87,2.64-5.85,5.82.02,3.23,2.62,5.83,5.84,5.84,3.24.01,5.84-2.63,5.83-5.91Zm-91.21.11c.08,3.36,2.69,5.87,6.02,5.79,3.16-.07,5.71-2.76,5.65-5.93-.07-3.28-2.75-5.79-6.11-5.71-3.06.08-5.64,2.79-5.56,5.85Z"/></svg>