<?xml version="1.0" encoding="UTF-8"?><svg id="Layer_1" xmlns="http://www.w3.org/2000/svg" width="120.84" height="142.04" viewBox="0 0 120.84 142.04"><path d="m109.66,75.13c-4.35-4.51-9.51-7.45-15.55-8.59-9.32-1.76-17.62.57-24.82,6.73-.9.77-1.58.88-2.65.45-20.02-7.94-32.65-22.63-38.86-42.96-1.71-5.58-2.47-11.44-3.73-17.16-.25-1.16.09-1.85.96-2.59,6.01-5.13,12.96-8.39,20.67-9.73,22.78-3.95,43.36,1.2,61.19,16,11.06,9.18,15.48,21.3,13.53,35.56-.57,4.2-1.46,8.4-2.71,12.45-1.29,4.18-4.05,7.46-8.03,9.85ZM44.88,41.07c.09,4.55.73,9.01,2.9,13.06,1.02,1.91,2.28,3.78,3.79,5.32,4.93,5,11.82,4.97,16.75-.04,5.01-5.1,6.6-11.56,6.57-18.43-.03-6.23-1.53-12.1-5.7-17-1.98-2.32-4.41-3.97-7.48-4.45-4.6-.72-8.24,1.12-11.15,4.53-4.17,4.89-5.48,10.78-5.68,17.02Z"/><path d="m57.11,90.68h9.06c.04-.11.2-.54.31-.98,2.78-11.31,13.1-18.45,24.82-17.16,10.94,1.2,19.55,10.77,19.73,21.92.19,11.5-7.95,21.16-19.28,22.87-11.37,1.72-22.53-5.74-25.22-16.87-.71-2.94-1.43-3.55-4.5-3.71-.76-.04-1.54,0-2.3.11-1.59.23-2.49.91-2.85,2.74-2.25,11.42-12.76,18.94-24.65,17.8-11.15-1.07-20.01-11-20.01-22.42,0-11.54,8.72-21.28,20.14-22.48,11.24-1.18,21.37,5.77,24.33,16.69.14.51.29,1.01.42,1.49Zm-7.67,4.37c.04-8.05-6.49-14.64-14.53-14.67-8.08-.03-14.64,6.45-14.68,14.51-.04,8.07,6.46,14.65,14.52,14.69,8.05.04,14.65-6.49,14.69-14.53Zm39.15-14.67c-8.12-.03-14.63,6.39-14.69,14.48-.06,8.08,6.44,14.68,14.48,14.72,8.08.04,14.66-6.45,14.73-14.5.06-8.04-6.48-14.66-14.51-14.7Z"/><path d="m17.72,14.39c2.74,20.41,9.8,38.57,25.44,52.53-2.64-.32-5.22-.87-7.81-.91-8.43-.14-15.62,2.93-21.5,8.97-.84.86-1.42.91-2.39.33-3.3-1.98-6.04-4.59-7.45-8.13C-.63,55.44-1.69,43.49,3.2,31.54c2.64-6.47,9.26-14.03,14.53-17.15Z"/><path d="m21.67,126.89c2.31,4.35,5.89,5.79,10.74,3.8,2.8-1.15,5.54-2.78,7.86-4.73,6.59-5.53,13.52-6.32,21.12-2.44.55.28,1.49.26,2.04-.02,7.46-3.8,14.32-3.12,20.81,2.31,2.2,1.84,4.78,3.27,7.33,4.62,1.26.66,2.83.87,4.29.97,3.58.23,5.8-1.29,7.13-4.61,2.75,6.38-.99,13.47-7.88,14.81-5.91,1.15-11.55,0-17.01-2.32-5.86-2.48-10.92-6.16-15.66-10.49-1.71,1.4-3.35,2.83-5.08,4.14-5.94,4.49-12.37,8-19.9,8.84-2.56.28-5.24.2-7.78-.22-5.68-.94-8.87-5.18-8.64-11.04.04-1.06.22-2.12.36-3.18.02-.15.17-.27.28-.43Z"/><path d="m68.96,41.4c-.71,2.97-1.29,5.98-2.19,8.9-.42,1.37-1.3,2.67-2.22,3.81-2.84,3.52-6.38,3.51-9.29.06-1.93-2.28-2.89-5-3.46-7.88-.94-4.76-.69-9.45,1.15-13.95.59-1.46,1.42-2.89,2.43-4.1,2.79-3.36,6.19-3.34,9.05-.05,2.25,2.59,3.27,5.73,3.8,9.05.21,1.34.27,2.71.4,4.06.11.04.22.07.33.11Z"/></svg>