<?xml version="1.0" encoding="UTF-8"?><svg id="Layer_1" xmlns="http://www.w3.org/2000/svg" width="173.53" height="240.37" viewBox="0 0 173.53 240.37"><defs><style>.cls-1{fill:red;}</style></defs><path id="Path_23" class="cls-1" d="m.05,118.99V36.06C.05,28.81.03,21.55.28,14.31.94,6.63,7.13.6,14.83.14,37.61.03,60.4.05,83.19.04,107.55.03,131.91.1,156.27,0c6.99-.03,12.28,2.7,15.33,8.91,1.21,2.59,1.83,5.42,1.82,8.28.11,42.84.14,85.67.08,128.51v77.19c0,7.08-2.65,12.67-9.12,15.92-1.88.94-3.95,1.45-6.06,1.48-47.84.08-95.67.1-143.51.05-6.24-.41-11.61-4.54-13.62-10.47-.74-2.48-1.12-5.05-1.12-7.63C0,187.83-.02,153.41.02,118.99h.03Zm91.76,23.93c.61.48.92.72,1.21.96,5.64,5.13,13.83,6.31,20.69,2.98,7.62-3.32,12.35-12.18,12-21.21-.5-7.83-3.31-15.34-8.07-21.57-7.87-11.15-18.43-19.37-29.78-26.66-.63-.25-1.34-.2-1.93.15-2.7,1.74-5.37,3.55-7.95,5.44-9.35,6.39-17.34,14.56-23.52,24.05-4.81,7.84-7.64,16.23-5.32,25.57,4.01,16.2,21.4,20.62,32.14,11.06.3-.24.62-.46.95-.66-.44,6.8-.99,13.35-3.76,19.53h17.23c-2.98-6.25-3.26-12.78-3.89-19.65M50.06,53.3c-.28-.91-.49-1.62-.73-2.32-2.38-6.96-4.76-13.91-7.14-20.86-1.21-3.53-1.2-3.46-4.81-3.52-1.17-.18-2.27.62-2.46,1.79-2.25,6.85-4.62,13.66-6.94,20.49-.49,1.46-.95,2.93-1.49,4.57h5.25c.41-1.52.91-3.02,1.5-4.48.35-.63.97-1.07,1.69-1.19,2.18-.15,4.37-.02,6.56-.09,1.15-.04,1.63.36,1.97,1.5,1.4,4.66,1.46,4.65,6.61,4.12m97.67,160.31c-2.88-8.41-5.78-16.55-8.4-24.78-.8-2.51-2.52-1.6-4.05-1.83s-2.27.38-2.78,1.89c-2.52,7.62-5.17,15.21-7.75,22.81-.19.6-.34,1.22-.53,1.93h5.2c.5-1.28.92-2.58,1.28-3.9.07-.98.93-1.72,1.91-1.65,0,0,0,0,0,0,.07,0,.15.02.22.03,1.98.11,3.96.1,5.94-.02,1.44-.11,2,.43,2.37,1.77,1.1,3.96,1.16,3.94,5.3,3.85.34,0,.67-.05,1.27-.1"/><path id="Path_24" class="cls-1" d="m.05,118.99V36.06C.05,28.81.03,21.55.28,14.31.94,6.63,7.13.6,14.83.14,37.61.03,60.4.05,83.19.04,107.55.03,131.91.1,156.27,0c6.99-.03,12.28,2.7,15.33,8.91,1.21,2.59,1.83,5.42,1.82,8.28.11,42.84.14,85.67.08,128.51v77.19c0,7.08-2.65,12.67-9.12,15.92-1.88.94-3.95,1.45-6.06,1.48-47.84.08-95.67.1-143.51.05-6.24-.41-11.61-4.54-13.62-10.47-.74-2.48-1.12-5.05-1.12-7.63C0,187.83-.02,153.41.02,118.99h.03Zm91.76,23.93c.61.48.92.72,1.21.96,5.64,5.13,13.83,6.31,20.69,2.98,7.62-3.32,12.35-12.18,12-21.21-.5-7.83-3.31-15.34-8.07-21.57-7.87-11.15-18.43-19.37-29.78-26.66-.63-.25-1.34-.2-1.93.15-2.7,1.74-5.37,3.55-7.95,5.44-9.35,6.39-17.34,14.56-23.52,24.05-4.81,7.84-7.64,16.23-5.32,25.57,4.01,16.2,21.4,20.62,32.14,11.06.3-.24.62-.46.95-.66-.44,6.8-.99,13.35-3.76,19.53h17.23c-2.98-6.25-3.26-12.78-3.89-19.65M50.06,53.3c-.28-.91-.49-1.62-.73-2.32-2.38-6.96-4.76-13.91-7.14-20.86-1.21-3.53-1.2-3.46-4.81-3.52-1.17-.18-2.27.62-2.46,1.79-2.25,6.85-4.62,13.66-6.94,20.49-.49,1.46-.95,2.93-1.49,4.57h5.25c.41-1.52.91-3.02,1.5-4.48.35-.63.97-1.07,1.69-1.19,2.18-.15,4.37-.02,6.56-.09,1.15-.04,1.63.36,1.97,1.5,1.4,4.66,1.46,4.65,6.61,4.12m97.67,160.31c-2.88-8.41-5.78-16.55-8.4-24.78-.8-2.51-2.52-1.6-4.05-1.83s-2.27.38-2.78,1.89c-2.52,7.62-5.17,15.21-7.75,22.81-.19.6-.34,1.22-.53,1.93h5.2c.5-1.28.92-2.58,1.28-3.9.07-.98.93-1.72,1.91-1.65,0,0,0,0,0,0,.07,0,.15.02.22.03,1.98.11,3.96.1,5.94-.02,1.44-.11,2,.43,2.37,1.77,1.1,3.96,1.16,3.94,5.3,3.85.34,0,.67-.05,1.27-.1"/><path id="Path_25" class="cls-1" d="m38.25,32.92l3.29,10.65h-6.6l3.31-10.65Z"/><path id="Path_26" class="cls-1" d="m38.25,32.92l3.29,10.65h-6.6l3.31-10.65"/><path id="Path_27" class="cls-1" d="m139.21,204.08h-6.64l3.33-10.76,3.31,10.76Z"/><path id="Path_28" class="cls-1" d="m139.21,204.08h-6.64l3.33-10.76,3.32,10.76"/></svg>