<?xml version="1.0" encoding="UTF-8"?><svg id="Layer_1" xmlns="http://www.w3.org/2000/svg" width="293.34" height="277.39" viewBox="0 0 293.34 277.39"><defs><style>.cls-1{fill:#b71f32;}</style></defs><g id="Group_1"><path id="Path_1" class="cls-1" d="m279.83,191.07c.62,1.61.8,2.99,1.56,3.86,1.23,1.19,2.57,2.27,3.99,3.22,1.1-1.57,3.17-3.16,3.14-4.7-.12-5.15-3.15-9.35-8.04-10.02-2.52-.35-6.45,2.34-8.11,4.78-1.89,2.78-1.96,6.8-2.78,10.28-.08.35.17.75.22,1.13,3.64,24.88-14.74,40.29-38.81,32.26-5.63-1.88-10.87-4.94-17.26-7.92-.5,7.98-.89,15.63-1.51,23.26-.31,3.86-1.01,7.69-1.58,11.53-1.92,13.04-8.69,18.98-21.98,18.62-15.54-.41-31.06-1.26-46.6-1.82-10.29-.37-20.6-.37-30.88-.91-7.93-.42-15.87-1.11-23.73-2.24-8.93-1.29-12.82-5.2-13-14.3-.2-10.06.73-20.15,1.34-30.22.49-8.23-.69-9.19-8.2-6.02-8,3.38-15.65,7.69-24.83,7.35-10.3-.38-16.07-5.22-16.72-15.44-.28-4.38.57-8.86,1.13-13.27.83-6.53,1.17-12.84-4.54-17.69-4.37-3.71-9.44-4.3-13.98-1.4-2.25,1.44-3.5,5.08-4.22,7.96-.25,1.01,3.01,4.17,3.73,3.9,2.51-.95,4.6-2.98,8.09-5.49,2.33.49,2.52,2.87.32,5.74-3.04,3.95-7.42,5.06-12.02,3.93-3.2-.79-5.45-8.28-4.21-12.32,2.27-6.87,8.95-11.3,16.16-10.71,8.86.66,16.96,7.41,17.8,15.7.48,4.75-.18,9.66-.71,14.46-.61,5.46-.82,10.52,5.01,13.59,6.03,3.17,11.31,2.82,16.42-2.33,5.51-5.46,10.66-11.27,15.42-17.39,5.53-7.11,8.3-15.98,7.81-24.98-.04-6.57.92-13.1,2.85-19.38,2.5-8.91,9.49-13.69,18.77-13.2,21.15,1.11,42.28,2.51,63.41,3.92,12.39.83,24.79,1.74,37.15,2.91,9.3.88,15.34,6.85,15.96,16.16.62,9.27.34,18.6.79,27.89.17,3.4.53,7.2,2.15,10.05,4.87,8.56,11.48,15.66,20.58,19.95,7.45,3.58,16.38.44,19.96-7,.8-1.67,1.29-3.47,1.43-5.31.4-4.25-.07-8.74,1.15-12.72,1.59-5.19,3.66-10.63,7-14.8,4.49-5.6,8.87-5.73,14.39-2.49,6.02,3.53,10.66,12.34,9.23,17.53-1.33,4.83-5.55,7.14-10.44,5.72-4.06-1.17-5.11-5.01-2.79-11.61m-71.79-8.35l-.94-.03c0-4.66.14-9.32-.03-13.97-.32-8.46-2.43-11.27-10.66-12.63-8.2-1.36-16.5-2.26-24.8-2.83-23.23-1.6-46.46-3.12-69.71-4.25-8.18-.4-11.95,3.31-13.02,11.57-.92,7.11-1.45,14.27-1.94,21.42-1.1,16.27-2.2,32.53-3.04,48.82-.45,8.68-.67,17.39-.39,26.08.15,4.75,3.46,7.87,8.2,8.49,7.49.99,15.02,1.89,22.56,2.22,24.05,1.05,48.11,1.84,72.16,2.68,10.86.38,15.22-3.48,16-14.45.46-6.58.3-13.21.84-19.78,1.47-17.79,3.16-35.56,4.77-53.34"/><path id="Path_2" class="cls-1" d="m174.99,80.32c8.38-.06,12.26,2.99,13.94,10.92,1.67,7.93-2.87,13.18-10.79,11.82-5.6-.96-7.26,3.75-8.93,6.58-2.37,4-5.42,5.41-9.36,6.41-6.59,1.69-11.92,2.9-18.99-2.1-6.69-4.74-12.62-9.03-16.26-16.34-1.96-3.93-.7-6.59,3.28-7.47,15.28-3.4,30.62-6.57,45.94-9.8.39-.04.77-.05,1.16,0m10.28,12.02l-4.51-5.8c-1.25,2.57-2.93,5.05-3.55,7.76-.27,1.2,1.61,2.89,2.52,4.35l5.54-6.32"/><path id="Path_3" class="cls-1" d="m112.94,113.49l78.08,20.23.44,1.29c-2.62,1.09-5.3,3.26-7.84,3.11-14.82-.87-30.17,1.58-44.23-4.61-8.14-3.58-15.56-8.85-23.12-13.66-1.34-.85-1.74-3.19-3.33-6.36"/><path id="Path_4" class="cls-1" d="m148.34,0c.09.63.4,1.28.2,1.69-4.25,8.72-1.76,16.23,4.24,22.98,5.97,6.71,6.47,14.25,3.79,22.34-1.58,4.78-3.25,9.54-5.01,14.26-3.71,9.89-3.75,9.88,3.82,15.93-4.41,3.04-10.69-.29-10.85-6.47-.12-4.71,1.18-9.53,2.38-14.17.77-2.96,2.5-5.66,3.8-8.48,4.02-8.7,3.77-16.33-3.36-23.95-7.6-8.14-6.76-16.18.98-24.12"/><path id="Path_5" class="cls-1" d="m175,73.6c-7.14,1.48-9.13-1.97-9.7-5.9-.47-3.25-.1-6.56,1.08-9.62,3.01-7.26,2.59-13.71-2.07-20.16-2.27-3.1-2.54-7.23-.68-10.6,2.07,4.57,4.86,9.08,6.1,13.98,1.33,5.21,2.44,11.06,1.37,16.16-1.25,5.89-3.65,11.11,3.89,16.14"/><path id="Path_6" class="cls-1" d="m135.18,82.1c-6.52-1.36-8.2-5.61-7.04-10.38,2.15-8.61,5.1-17,8.8-25.07-.35,4.57.18,9.43-1.22,13.66-2.38,7.2-7.33,13.94-.55,21.79"/><path id="Path_7" class="cls-1" d="m172.13,263.4c-8.88.07-12.95-4.3-13.03-13.98-.12-13.96,8.29-24.27,19.74-24.21,9.17.05,15.85,7.68,15.64,18.77-.23,12.28-5.33,19.83-22.35,19.41m2.88-4.3c7.74.03,14.19-4.64,15.83-11.12s-1.94-14.89-7.72-18.11c-4.33-2.41-11.36-.77-15.54,4.38-4.28,5.27-6.56,11.76-4.66,18.36,1.65,5.73,7.55,5.87,12.09,6.49"/><path id="Path_8" class="cls-1" d="m130.15,176.72c-1.73,4.4-2.83,9.21-5.34,13.11-4.81,7.47-11.25,9.63-17.74,7.02-6.82-2.75-12.13-11.33-11.21-18.65.42-2.87,1.2-5.67,2.32-8.33,3.94-9.8,8.87-13.05,16.84-11.42,9.01,1.84,14.06,8.27,15.11,18.29m-4.49-.87c.09-7.88-5.47-13.78-13.22-14-6.86-.2-12.34,6.54-12.52,15.41-.19,9.24,4.58,15.6,11.86,15.79,7.25.2,13.78-7.89,13.89-17.2"/><path id="Path_9" class="cls-1" d="m177.16,243.38c-3.04,2.32-4.61,4.35-6.38,4.56-1.09.13-3.4-2.5-3.49-3.99-.07-1.27,2.11-3.54,3.55-3.78s3.19,1.51,6.32,3.21"/><path id="Path_10" class="cls-1" d="m119.81,182.74l-5.1,4.54c-1.06-1.35-3.22-3.01-2.94-3.99.46-1.63,2.3-3.15,3.94-3.99.51-.26,2.22,1.81,4.11,3.44"/></g></svg>