<?xml version="1.0" encoding="UTF-8"?><svg id="Layer_1" xmlns="http://www.w3.org/2000/svg" width="196.53" height="196.02" viewBox="0 0 196.53 196.02"><defs><style>.cls-1{fill:#b71f32;}</style></defs><path id="Path_33" class="cls-1" d="m156.24,195.93c-8.63,0-17.25-.14-25.87.07-3.14.23-6.11-1.43-7.56-4.22-6.38-10.15-12.92-20.19-19.42-30.27-3.32-5.14-6.84-5.15-10.15-.02-6.5,10.07-13.04,20.12-19.42,30.27-1.46,2.78-4.42,4.44-7.55,4.24-17.52-.15-35.04-.05-52.56-.08-5.58,0-6.94-1.69-5.95-7.22,2.99-16.69,10.11-31.71,18.65-46.18,5.4-9.16,10.88-18.3,15.72-27.76,4.61-9.01,2.84-11.08-7.28-11.5-7.26-.03-14.49-.86-21.57-2.47-12.69-3.43-17.26-16.22-9.39-26.76,4.42-5.56,9.79-10.3,15.84-14.01,12.54-8.09,26.7-12.71,40.96-16.78,4.05-1.15,5.39-3.32,6.12-7.28,1.31-7.07,2.49-14.44,5.48-20.87C77.75,3.35,88.22-.61,100.72.07c11.95.66,20.55,6.51,24.88,17.52,2.08,5.95,3.49,12.11,4.19,18.37.6,4.01,2.08,6.11,6.11,7.29,15.92,4.65,31.69,9.89,45.42,19.54,4.43,3.04,8.32,6.81,11.48,11.16,7.58,10.79,3.25,23.51-9.42,26.83-7.44,1.95-15.4,2.13-23.16,2.54-8.07.42-9.98,2.6-6.35,9.93,4.55,9.15,9.59,18.07,14.87,26.83,9.17,15.21,16.91,30.95,20.09,48.6,1,5.55-.37,7.22-5.92,7.25-8.9.04-17.79.01-26.68.01"/></svg>