<?xml version="1.0" encoding="UTF-8"?><svg id="Layer_1" xmlns="http://www.w3.org/2000/svg" width="214.4" height="213.21" viewBox="0 0 214.4 213.21"><defs><style>.cls-1{fill:#b71f32;}</style></defs><path id="Path_21" class="cls-1" d="m76.61,195.19c-4.37-4.86-8.9-9.58-13.05-14.62-1.83-2.31-3.27-4.9-4.26-7.67-1.16-3.12.28-5.13,3.64-5.39,2.17-.09,4.34.06,6.47.45,5.38.83,10.66.91,15.28-2.49,5.6-4.12,6.91-10.04,6.23-16.52-1.38-13.27-13.13-26.15-26.25-28.98-12.49-2.69-21.38,4.71-21.12,17.49.13,2.16-.05,4.33-.51,6.44-1.03,3.8-3.6,5.05-6.95,3.07-3.32-1.88-6.36-4.22-9.04-6.94-8.35-8.89-16.41-18.04-24.54-27.13-3.21-3.01-3.37-8.06-.36-11.26.55-.59,1.19-1.09,1.88-1.48,12.08-8.24,24.29-16.34,34.93-26.45,2.59-2.43,4.84-5.21,6.66-8.26,2.34-3.99.97-6.9-3.48-8.14-2.35-.61-4.77-.96-7.2-1.04-12.13-.6-19.96-9.46-18.9-21.5,1.33-15.19,16.63-28.49,31.85-27.67,11.61.62,19.37,9.82,18.29,21.56-.33,3.02-.39,6.07-.19,9.1-.14,2.28,1.59,4.24,3.87,4.39.76.05,1.52-.12,2.2-.48,2.59-.98,4.99-2.38,7.12-4.15,11.67-9.94,22.26-21.1,31.58-33.27,4.34-5.53,9.5-5.66,14.27-.38,8.48,9.36,16.98,18.71,25.31,28.2,1.8,2.12,3.27,4.5,4.34,7.06,1.89,4.36.22,6.76-4.52,6.8-2-.03-3.99-.27-5.94-.72-12.77-2.6-21.93,5.49-20.87,18.48,1.16,14.18,14.14,27.96,28.24,29.97,11.4,1.62,19.79-6.12,19.24-17.63-.18-2.25-.01-4.51.49-6.7,1.01-3.77,3.67-5.03,6.99-3.01,3.52,2.07,6.74,4.6,9.59,7.52,8.07,8.56,15.84,17.39,23.67,26.16,4.34,4.86,3.56,10.04-1.98,13.55-13.08,8.01-25.28,17.38-36.4,27.93-2.06,2.1-3.74,4.54-4.97,7.22-1.52,3.2-.27,5.54,3.19,6.22,2.91.49,5.86.72,8.82.7,11.44.23,19.47,7.73,19.75,18.66.14,6.52-2.09,12.87-6.29,17.86-6.3,7.83-14.3,12.73-24.65,12.63-12.04-.12-19.9-8.8-19.34-20.82.17-2.86-.02-5.73-.55-8.54-.67-3.27-2.98-4.67-6.06-3.42-3.61,1.24-6.96,3.13-9.87,5.59-8.03,7.71-15.65,15.85-23.31,23.93-2.74,2.9-5.08,6.18-7.68,9.21-3.06,3.22-8.16,3.35-11.38.29,0,0,0,0,0,0-.22-.21-.44-.44-.63-.68-4.59-5.01-9.1-10.09-13.65-15.14"/><path id="Path_22" class="cls-1" d="m76.61,195.19c-4.37-4.86-8.9-9.58-13.05-14.62-1.83-2.31-3.27-4.9-4.26-7.67-1.16-3.12.28-5.13,3.64-5.39,2.17-.09,4.34.06,6.47.45,5.38.83,10.66.91,15.28-2.49,5.6-4.12,6.91-10.04,6.23-16.52-1.38-13.27-13.13-26.15-26.25-28.98-12.49-2.69-21.38,4.71-21.12,17.49.13,2.16-.05,4.33-.51,6.44-1.03,3.8-3.6,5.05-6.95,3.07-3.32-1.88-6.36-4.22-9.04-6.94-8.35-8.89-16.41-18.04-24.54-27.13-3.21-3.01-3.37-8.06-.36-11.26.55-.59,1.19-1.09,1.88-1.48,12.08-8.24,24.29-16.34,34.93-26.45,2.59-2.43,4.84-5.21,6.66-8.26,2.34-3.99.97-6.9-3.48-8.14-2.35-.61-4.77-.96-7.2-1.04-12.13-.6-19.96-9.46-18.9-21.5,1.33-15.19,16.63-28.49,31.85-27.67,11.61.62,19.37,9.82,18.29,21.56-.33,3.02-.39,6.07-.19,9.1-.14,2.28,1.59,4.24,3.87,4.39.76.05,1.52-.12,2.2-.48,2.59-.98,4.99-2.38,7.12-4.15,11.67-9.94,22.26-21.1,31.58-33.27,4.34-5.53,9.5-5.66,14.27-.38,8.48,9.36,16.98,18.71,25.31,28.2,1.8,2.12,3.27,4.5,4.34,7.06,1.89,4.36.22,6.76-4.52,6.8-2-.03-3.99-.27-5.94-.72-12.77-2.6-21.93,5.49-20.87,18.48,1.16,14.18,14.14,27.96,28.24,29.97,11.4,1.62,19.79-6.12,19.24-17.63-.18-2.25-.01-4.51.49-6.7,1.01-3.77,3.67-5.03,6.99-3.01,3.52,2.07,6.74,4.6,9.59,7.52,8.07,8.56,15.84,17.39,23.67,26.16,4.34,4.86,3.56,10.04-1.98,13.55-13.08,8.01-25.28,17.38-36.4,27.93-2.06,2.1-3.74,4.54-4.97,7.22-1.52,3.2-.27,5.54,3.19,6.22,2.91.49,5.86.72,8.82.7,11.44.23,19.47,7.73,19.75,18.66.14,6.52-2.09,12.87-6.29,17.86-6.3,7.83-14.3,12.73-24.65,12.63-12.04-.12-19.9-8.8-19.34-20.82.17-2.86-.02-5.73-.55-8.54-.67-3.27-2.98-4.67-6.06-3.42-3.61,1.24-6.96,3.13-9.87,5.59-8.03,7.71-15.65,15.85-23.31,23.93-2.74,2.9-5.08,6.18-7.68,9.21-3.06,3.22-8.16,3.35-11.38.29,0,0,0,0,0,0-.22-.21-.44-.44-.63-.68-4.59-5.01-9.1-10.09-13.65-15.14"/></svg>