<?xml version="1.0" encoding="UTF-8"?><svg id="Layer_1" xmlns="http://www.w3.org/2000/svg" width="163.59" height="143.53" viewBox="0 0 163.59 143.53"><path d="m45.43,120.1c-14.7.97-29.41,1.93-44.11,2.9,0,.13,0,.26-.01.39,15.48.92,30.97,1.84,46.45,2.76-.02.77-.03,1.53-.05,2.3-14.79.87-29.58,1.75-44.37,2.62.01.29.03.58.04.87,14.51.88,29.03,1.64,43.52,2.75,2.65.2,5.59,1.31,7.7,2.91,10.82,8.21,24.67,7.9,33.67-1.08,9.13-9.12,9.62-22.6,1.21-33.59-.52-.68-.97-1.42-2.4-3.52,5.05.65,8.79,1.14,13.27,1.72.21-.5.95-2.24,1.66-3.92-14.59-9.23-31.14-8.86-45.81-5.32-17.35,4.19-34.61,3.47-51.85,5.33-.44.05-.88.19-1.33,1.08,16.48.94,32.96,1.88,49.45,2.81l.05,1.91c-17.5,1.01-35,2.02-52.49,3.03,0,.14-.02.27-.02.41,15.87.97,31.73,1.94,47.6,2.9,0,.74.02,1.49.03,2.23-15.43.95-30.86,1.89-46.29,2.84,0,.16,0,.33,0,.49,14.75.93,29.49,1.86,44.24,2.78l-.15,2.37Zm39.34-5.29c-4.32,0-8.62-.42-12.76.18-1.96.29-3.63,2.54-5.43,3.9,1.71,1.43,3.29,3.82,5.17,4.09,4.31.62,8.77.19,13.35.19-1.77,8.34-8.12,12.35-16.76,11.39-7.22-.8-13.46-8.22-13.32-15.81.15-8.14,6.8-15,14.94-15.41,7.88-.4,13.85,3.91,14.81,11.47Z"/><path d="m86.81,89.59c.22-6.56-.49-13.03,8.06-14.42-8.28-9.58-5.59-20.46-4.47-31.19.17-1.59-.7-3.29-1.09-4.94-1.88.95-4.88,1.47-5.43,2.92-1.67,4.41-2.39,9.18-3.65,14.55-10.34,0-21.2,0-32.05,0q-7.97,0-7.81,7.77c.06,3.22.69,6.63-.13,9.62-1.73,6.28,2.97,9.81,5.31,14.33.41.8,2.14,1.29,3.27,1.3,12.49.09,24.98.06,38,.06Z"/><path d="m132.73,64.99c-4.92,4.52-6.87,8.53-5.11,13.86.72,2.17.5,4.66,1.22,6.83,2.16,6.51,1.07,10.87-5.49,14.84-7.35,4.45-8.58,13.68-10.18,21.17-1.63,7.67,12.53,20.32,21.78,21.52,13.6,1.77,25.77-6.47,28.15-19.07,2.62-13.89-5.45-26.16-19.54-29.13-3.43-.72-4.8-2.14-5.23-5.52-.79-6.19-1.9-12.35-3.1-18.48-.37-1.9-1.48-3.65-2.49-6.03Zm-8,58.43c4.04,0,7.92.12,11.79-.03,6-.22,6.89-1.21,6.31-7.12-.39-3.96-1.08-7.9-1.65-12.01,8.39,1.01,13.45,6.7,13.52,14.49.07,7.74-5.44,14.67-12.57,15.77-8.42,1.31-14.99-2.7-17.4-11.11Zm8.84-9.66h-10.24c3.05-3.43,5.4-6.06,8.58-9.64.69,4.03,1.13,6.61,1.65,9.64Z"/><path d="m106.39,94.72c-2.65,7.12-5.24,13.56-7.44,20.12-1.71,5.09.13,9.15,4.2,8.9,2.29-.14,5.57-2.09,6.45-4.09,3.79-8.63,6.89-17.57,10.17-26.41,1.37-3.68-.07-6.49-3.48-7.85-5.95-2.37-12-4.54-18.12-6.41-3.24-.99-6.62-.63-7.93,3.32-1.32,3.97.61,6.58,4.2,8.03,3.78,1.52,7.64,2.81,11.95,4.38Z"/><path d="m104.92,59.31c0-4.33.2-7.89-.06-11.42-.26-3.52-2.01-6.35-5.9-6.39-4.15-.04-6.03,2.75-6.1,6.63-.11,5.88-.08,11.77.08,17.65.11,3.86,2.34,5.89,6.22,5.72,7.48-.33,14.96-.72,22.42-1.22,3.71-.25,6.15-2.34,6-6.13-.15-3.82-2.9-5.72-6.5-5.69-5.12.04-10.24.52-16.18.85Z"/><path d="m120.67,16.74c-3.5-4.15-6.8-8.13-10.17-12.04-2.98-3.46-6.66-5.52-11.33-4.39-3.96.95-7.96,1.99-11.68,3.59-3.97,1.7-6.29,7.36-4.76,11.35.5,1.31,2.51,2.93,3.79,2.9,11.65-.29,23.29-.92,34.15-1.41Z"/><path d="m83.75,21.96c-.39,9.09,5.37,15.69,13.71,16.13,8.22.43,15.58-5.7,16.04-13.78.07-1.17-1.87-3.53-2.85-3.52-8.85.15-17.7.71-26.9,1.17Z"/></svg>