<?xml version="1.0" encoding="UTF-8"?><svg id="Layer_1" xmlns="http://www.w3.org/2000/svg" width="212.38" height="233.22" viewBox="0 0 212.38 233.22"><defs><style>.cls-1{fill:red;}</style></defs><path id="Path_29" class="cls-1" d="m208.48,116.48c13.75,48.13-10.11,74.39-51.87,91.55-14.16,5.82-26.37,16.29-40.39,22.61-6.41,2.89-16.53,3.7-22.38.59-27.29-14.5-54.13-29.98-80.06-46.77-7.1-5.28-11.7-13.26-12.7-22.06-1.45-30.33-1.43-60.8-.01-91.13.36-7.75,5.98-18.05,12.41-22.22C39.38,32.26,66.23,16.79,93.51,2.27c5.9-3.14,16.4-2.97,22.36.22,27.25,14.56,54.05,30.1,80.05,46.79,6.12,3.93,11.11,13.39,12.01,20.85,1.84,15.25.55,30.88.55,46.35m-72.06-10.42h-63.86l31.91,50.4,31.95-50.41m-65.15-24.25h66.55l-33.39-44.43-33.16,44.43m-18.89,32.5c-3.82,15.81-6.45,26.73-9.5,39.35l40.15,9.14-30.65-48.48m105.36,4.78l-4.19-.2-27.15,44,39.68-9.44-8.33-34.36m-112.25-38.59l27.85-37.63-2.57-2.64-42.85,24.85,17.57,15.41m135.51-15.47l-43.07-24.97-2.39,3.06,28.17,37.43,17.29-15.53M48.72,180.42l42.65,24.52,3.37-6.06c-5.97-22.97-30.84-12.5-46.02-18.46m68.68,24.83l47.61-27.65q-51.25,7.62-47.61,27.65M22.82,131.61c3.14-12.55,17.19-25.6,0-37.33v37.33Zm162.55-.46v-41.19c-17.12,16.57-2.37,29.05,0,41.2"/></svg>